<svg width="212" height="41" viewBox="0 0 212 41" fill="none" xmlns="http://www.w3.org/2000/svg">
<g clip-path="url(#clip0_41_426)">
<path d="M0.0703125 0H21.0161C31.5758 0 34.2808 6.16125 34.2808 10.3063C34.2808 16.076 30.7995 17.7007 28.9962 18.5378C34.2808 20.3875 35.6599 24.3075 35.6599 28.2859C35.6599 31.4768 34.2181 34.5012 31.9423 36.576C29.4783 38.8172 27.135 40.2169 18.3159 40.2169H0.0703125V0ZM8.71094 33.2726H19.7528C24.1358 33.2726 26.6528 31.4813 26.6528 27.3903C26.6528 23.8619 23.4125 22.5162 20.1723 22.5162H8.71094V33.2726ZM8.71094 15.7384H19.2706C22.8098 15.7384 25.6306 14.4513 25.6306 11.2559C25.6306 7.95247 23.1088 6.94435 19.0295 6.94435H8.71094V15.7384ZM66.0997 34.3932C66.0997 37.9216 66.9387 38.7047 67.961 39.0423V40.2169H58.896C58.4635 39.0798 58.2007 37.8925 58.1149 36.6885C56.2006 38.5337 53.4956 41 47.7963 41C42.9938 41 38.0756 38.4797 38.0756 32.3184C38.0756 26.4947 42.0342 23.5244 47.3768 22.7953L54.9373 21.7332C56.2585 21.5621 57.8786 21.0626 57.8786 19.3794C57.8786 16.076 54.5178 15.9049 52.3577 15.9049C48.1579 15.9049 47.4346 18.3127 47.1984 20.0499H39.0978C40.0573 10.9183 46.8367 9.63118 53.3799 9.63118C57.8786 9.63118 66.0997 10.9183 66.0997 18.2587V34.3932ZM57.8786 25.7071C57.0396 26.3237 55.6606 26.8278 52.1793 27.3318C49.0596 27.8359 46.4751 28.565 46.4751 31.8144C46.4751 34.5552 48.7558 35.3968 50.3759 35.3968C54.0983 35.3968 57.8786 33.1555 57.8786 29.5146V25.7071ZM71.0324 10.4143H79.0751V15.5719H79.1957C80.9364 12.5475 82.8554 9.63568 87.9569 9.63568C88.4969 9.63568 89.0369 9.68968 89.577 9.74819V17.7007C88.8585 17.5881 87.9569 17.5881 87.1757 17.5881C80.6374 17.5881 79.4368 21.3956 79.4368 24.7035V40.2214H71.0324V10.4143ZM99.1338 14.2802H99.2543C100.571 12.3765 103.092 9.63118 108.498 9.63118C115.518 9.63118 121.758 14.6718 121.758 24.978C121.758 33.1555 117.799 41 108.314 41C104.833 41 101.115 39.8209 99.0711 36.4634H98.9505V40.2124H90.7294V0H99.1289L99.1338 14.2802ZM105.976 16.409C100.214 16.409 98.7769 21.2246 98.7769 25.9862C98.7769 30.4102 100.879 34.5552 106.217 34.5552C111.617 34.5552 113.122 29.0645 113.122 25.5406C113.117 20.8375 111.318 16.409 105.976 16.409ZM139.593 41C131.015 41 123.272 36.0719 123.272 25.3156C123.272 14.5593 131.011 9.63118 139.593 9.63118C148.176 9.63118 155.92 14.5593 155.92 25.3156C155.92 36.0719 148.176 41 139.593 41ZM139.593 16.2425C133.113 16.2425 131.912 21.5081 131.912 25.3156C131.912 29.1231 133.113 34.3887 139.593 34.3887C146.079 34.3887 147.274 29.1231 147.274 25.3156C147.274 21.5081 146.074 16.2425 139.593 16.2425ZM188.091 40.2169H180.048V36.0179H179.932C178.013 39.2088 174.648 41 170.207 41C163.905 41 159.343 37.6381 159.343 30.0232V10.4143H167.748V28.898C167.748 33.4931 170.626 34.3887 173.206 34.3887C175.969 34.3887 179.691 32.935 179.691 27.6109V10.4143H188.091V40.2169ZM193.385 10.4143H201.423V15.5719H201.544C203.284 12.5475 205.203 9.63568 210.305 9.63568C210.84 9.63568 211.385 9.68968 211.925 9.74819V17.7007C211.206 17.5881 210.305 17.5881 209.524 17.5881C202.985 17.5881 201.785 21.3956 201.785 24.7035V40.2214H193.385V10.4143Z" fill="black"/>
</g>
<defs>
<clipPath id="clip0_41_426">
<rect width="212" height="41" fill="white"/>
</clipPath>
</defs>
</svg>
