<svg width="177" height="89" viewBox="0 0 177 89" fill="none" xmlns="http://www.w3.org/2000/svg">
<g clip-path="url(#clip0_41_442)">
<path d="M0.0257568 78.972V68.9439H15.3087V72.6906H4.80167V77.319H13.8759V80.8453H4.80167V89H0.0257568V78.972ZM17.2191 78.9539V68.908L23.965 68.9858C31.3969 69.0715 31.5946 69.1037 33.3354 70.5144C34.6168 71.5527 35.197 72.8718 35.1846 74.7168C35.1715 76.6576 34.4933 78.0016 33.056 78.9367L32.0103 79.6168L32.796 79.9889C34.0568 80.5859 34.6614 81.8468 34.9301 84.4396C35.0581 85.6749 35.3021 87.2067 35.4721 87.843L35.7814 89H33.451C31.5119 89 31.0953 88.9394 30.9704 88.6388C30.8877 88.4402 30.7139 87.3305 30.5838 86.173C30.275 83.4255 30.0128 82.5843 29.2625 81.933C28.6786 81.4261 28.4604 81.3924 25.3197 81.3245L21.995 81.2529V89H17.2191V78.9539Z" fill="black"/>
<path d="M29.164 77.6473C30.0793 77.2105 30.4058 76.604 30.427 75.3003C30.4461 74.1267 29.9076 73.2284 28.8975 72.7492C28.5283 72.574 27.1949 72.4759 25.1594 72.4737L21.9954 72.4702V77.9801H25.231C27.6498 77.9801 28.6425 77.8962 29.164 77.6473Z" fill="#277793"/>
<path d="M37.7559 78.9719V68.9439H53.994V72.6906H42.5318V77.0986H53.0388V80.4045H42.5318V85.2533H54.2328V89H37.7559V78.9719ZM55.9043 78.947V68.894L61.6951 68.999C68.1496 69.1155 68.9727 69.2553 71.0712 70.5893C72.5398 71.5227 73.6691 72.9066 74.3671 74.6275C74.8 75.6946 74.8776 76.3567 74.8762 78.9722C74.8748 81.6692 74.8058 82.2168 74.3282 83.3221C73.5029 85.233 72.4049 86.5915 70.9485 87.5048C68.8796 88.8019 67.6056 89.0002 61.3465 89.0002H55.9043V78.947Z" fill="black"/>
<path d="M67.8707 84.48C68.4899 84.0782 69.1332 83.3852 69.5026 82.7218C70.0547 81.7314 70.112 81.3856 70.1056 79.0875C70.0994 76.8665 70.027 76.4132 69.5294 75.4763C68.4615 73.4651 66.5623 72.6907 62.6981 72.6907H60.6803V85.2976L63.7646 85.2205C66.7455 85.1458 66.8828 85.1211 67.8707 84.48Z" fill="#277793"/>
<path d="M81.2168 78.9497V68.8992L87.127 68.9975C91.8814 69.0766 93.25 69.1683 94.1254 69.4667C97.234 70.5268 98.9245 73.6406 98.1821 76.9399C97.7463 78.8783 96.6896 80.1509 94.7821 81.0351C93.2321 81.7538 93.0756 81.7796 89.5883 81.8938L85.9927 82.0113V88.9999H81.2168V78.9497Z" fill="black"/>
<path d="M92.3702 77.8799C93.2697 77.3813 93.6958 76.5581 93.6776 75.3532C93.6449 73.1722 92.3833 72.4702 88.4953 72.4702H85.9927V78.467L88.7985 78.3855C91.0344 78.3209 91.7598 78.2182 92.3702 77.8799Z" fill="#277793"/>
<path d="M99.8428 78.9719V68.9438H116.081V72.6906H104.601L104.67 74.8395L104.738 76.9883L109.932 77.0478L115.126 77.1074V80.4045H104.619V85.2532H116.32V89H99.8428V78.9719ZM118.23 78.9536V68.9075L124.874 68.9806L131.518 69.054L132.903 69.7152C134.601 70.5263 135.56 71.6878 135.951 73.408C136.487 75.7669 135.53 78.0778 133.577 79.1412L132.753 79.5901L133.432 79.857C134.984 80.4678 135.593 81.7644 135.886 85.0862C136.007 86.4509 136.22 87.8467 136.361 88.1878C136.502 88.5292 136.617 88.8515 136.617 88.9041C136.617 88.9568 135.551 89.0002 134.248 89.0002H131.879L131.74 88.3941C131.664 88.0607 131.494 86.8167 131.364 85.6295C131.107 83.2933 130.768 82.4608 129.784 81.7465C129.213 81.3319 128.834 81.2863 125.958 81.2863H122.767V89.0002H118.23V78.9536Z" fill="black"/>
<path d="M130.539 77.263C131.804 75.904 131.482 73.5713 129.931 72.8561C129.262 72.5478 128.465 72.4708 125.931 72.4704L122.767 72.47V78.0116L126.37 77.9407C129.966 77.8699 129.975 77.8686 130.539 77.263Z" fill="#277793"/>
<path d="M138.528 78.9539V68.908L145.274 68.9858C152.704 69.0715 152.903 69.1039 154.641 70.5125C155.944 71.5677 156.426 72.6842 156.432 74.6597C156.439 76.7404 155.841 77.9758 154.365 78.9367L153.319 79.6168L154.104 79.9889C155.431 80.6172 155.96 81.8109 156.322 84.989C156.498 86.5283 156.754 88.0609 156.892 88.3942L157.142 89.0003H152.396L152.172 88.1738C152.049 87.7193 151.88 86.6056 151.798 85.6989C151.605 83.5774 151.255 82.527 150.533 81.9002C149.996 81.4338 149.706 81.391 146.628 81.3247L143.304 81.2529V89H138.528V78.9539Z" fill="black"/>
<path d="M150.446 77.6599C151.724 77.0496 152.179 74.7608 151.251 73.6066C150.454 72.6157 149.867 72.4768 146.468 72.4733L143.304 72.4702V77.9801H146.539C148.902 77.9801 149.956 77.8938 150.446 77.6599Z" fill="#277793"/>
<path d="M164.318 85.2211V81.4421L160.343 75.3583C158.157 72.0122 156.323 69.2002 156.269 69.1091C156.215 69.0181 157.387 68.9438 158.874 68.9438H161.577L164.045 72.8008C165.402 74.9221 166.582 76.6558 166.668 76.6533C166.754 76.6511 167.906 74.9404 169.228 72.8515L171.631 69.054L174.302 68.9917C175.771 68.9575 176.974 68.965 176.974 69.0084C176.974 69.0518 175.147 71.8903 172.914 75.316L168.855 81.5444V89H164.318V85.2211Z" fill="black"/>
<path d="M91.0216 62.0651C90.6799 61.7874 89.7827 60.72 89.0274 59.6928C88.2721 58.6657 87.3723 57.6803 87.0278 57.5033C86.4389 57.2007 86.3448 57.2228 85.4613 57.8687C84.944 58.2467 83.8843 59.306 83.1058 60.2235C81.7315 61.843 81.3189 62.0896 80.6443 61.6951C80.1438 61.4024 80.7961 60.6453 83.2486 58.6734C85.84 56.5896 85.7808 56.1558 83.0642 57.327C80.4468 58.4552 78.7492 58.8259 75.5949 58.9566C72.9527 59.0662 71.5354 58.8709 71.5354 58.3977C71.5354 58.2884 72.2728 57.8416 73.174 57.4041C76.6645 55.7115 81.7294 55.2202 85.0216 56.2552L86.6875 56.7791L87.7678 56.281C89.809 55.3399 92.2495 55.0307 95.3773 55.3161C98.616 55.6117 102.928 57.0019 103.229 57.848C103.465 58.5103 99.9428 58.9059 96.7284 58.5782C94.5749 58.3587 92.915 57.936 89.494 56.7363C88.7266 56.4668 88.3488 56.4355 87.9942 56.6107C87.5557 56.8271 87.6749 57.005 89.5824 58.9822C90.7167 60.1578 91.7946 61.1992 91.9778 61.2959C92.4045 61.5218 92.4038 61.9862 91.9766 62.3135C91.7148 62.5143 91.5085 62.4605 91.0216 62.0651Z" fill="black"/>
<path d="M65.9239 56.0729C65.2672 55.9236 64.4675 55.6706 64.147 55.5104L63.5641 55.2186L64.21 54.7059C66.3169 53.0331 74.0508 52.4497 77.1802 53.7274L78.3348 54.199L77.6215 54.6114C75.0908 56.0753 69.1858 56.8129 65.9239 56.0729Z" fill="black"/>
<path d="M83.1172 55.1907C79.092 54.0126 73.4459 49.457 73.4459 47.3877C73.4459 46.8936 73.5092 46.866 74.3254 47.0075C75.3417 47.1834 77.9594 48.3696 79.177 49.2058C81.5031 50.8032 83.7258 53.2192 84.41 54.8938C84.6958 55.5938 84.5834 55.6198 83.1172 55.1907Z" fill="black"/>
<path d="M99.8957 55.0514C98.5947 54.8491 96.7606 54.3005 95.8928 53.8537L95.2958 53.5463L96.6092 52.9915C98.9885 51.9863 102.697 51.7128 106.176 52.2856C107.962 52.5798 109.982 53.3413 109.982 53.7208C109.982 54.0353 108.047 54.8118 106.657 55.0551C105.191 55.3121 101.559 55.3099 99.8957 55.0514Z" fill="black"/>
<path d="M88.4085 54.4816C89.3262 52.1917 92.7018 49.3131 96.3728 47.6894C98.1019 46.9244 99.9523 46.6372 99.9523 47.1334C99.9523 48.1531 97.5073 50.7265 95.1026 52.2378C93.2689 53.3902 90.5292 54.5687 89.2617 54.7501C88.3328 54.8834 88.2571 54.8592 88.4085 54.4816Z" fill="black"/>
<path d="M63.8131 51.9583C60.8291 51.5785 57.0189 50.1202 56.6419 49.2132C56.5012 48.8747 57.4127 48.5522 59.1432 48.3283C60.6589 48.1322 64.2492 48.5686 66.4664 49.2183C68.265 49.7453 70.7 51.0055 70.7 51.4093C70.6998 51.9536 66.4428 52.2928 63.8131 51.9583Z" fill="black"/>
<path d="M103.892 51.1669C102.703 50.9858 102.71 50.7275 103.926 49.9038C106.51 48.1526 110.829 47.0199 114.399 47.1572C116.773 47.2489 117.26 47.52 116.462 48.3048C114.974 49.7667 110.701 51.0722 106.997 51.196C105.683 51.2401 104.286 51.2269 103.892 51.1669Z" fill="black"/>
<path d="M71.2588 50.1001C69.6195 48.9996 67.8476 46.8653 66.4836 44.3486C65.5124 42.5563 65.2531 41.8385 65.1504 40.6569C65.0804 39.8503 65.0967 39.1902 65.1867 39.1902C66.1658 39.1902 68.893 41.7494 70.3244 44.0116C71.5805 45.9967 72.5361 48.6452 72.4435 49.8847L72.3713 50.8468L71.2588 50.1001Z" fill="black"/>
<path d="M100.907 50.0081C100.907 48.0832 102.177 44.9901 103.963 42.5629C105.042 41.0959 107.433 38.9697 108.004 38.9697C108.579 38.9697 108.273 41.4133 107.481 43.1573C106.221 45.9312 103.225 49.5217 101.43 50.4081C100.947 50.647 100.907 50.6168 100.907 50.0081Z" fill="black"/>
<path d="M64.7912 47.9134C62.0398 47.0171 59.1158 45.2081 57.2011 43.2174C56.0838 42.0557 55.3887 40.7812 55.7103 40.4843C56.063 40.1588 58.6678 40.9242 60.5275 41.8997C62.7099 43.0446 65.6089 45.5038 66.5371 46.9972C66.9196 47.613 67.2337 48.1911 67.2348 48.2819C67.2389 48.572 66.4461 48.4523 64.7912 47.9134Z" fill="black"/>
<path d="M107.476 46.4371C108.457 43.4536 114.21 38.8971 117.632 38.392C118.605 38.2485 118.628 38.2591 118.456 38.7724C117.868 40.5237 116.147 42.4876 113.731 44.164C111.96 45.3922 109.458 46.5892 108.209 46.8054C107.337 46.9564 107.309 46.9425 107.476 46.4371Z" fill="black"/>
<path d="M62.7102 41.5181C60.8132 38.9734 59.7484 35.4384 59.8736 32.102C59.965 29.6589 60.2267 29.1597 61.0599 29.8397C61.8358 30.4729 63.3137 33.5556 63.7774 35.5074C64.2359 37.4381 64.2101 41.852 63.7378 42.2879C63.5388 42.4717 63.2724 42.2723 62.7102 41.5181Z" fill="black"/>
<path d="M109.463 40.127C108.999 38.9181 109.07 34.3768 109.58 32.5783C110.169 30.502 111.591 27.9068 112.091 27.9956C113.542 28.2535 113.315 34.6805 111.729 38.1985C111.238 39.2877 110.157 40.9526 109.941 40.9532C109.852 40.9532 109.637 40.5814 109.463 40.127Z" fill="black"/>
<path d="M58.0433 39.6751C54.183 38.4389 49.5422 34.8744 48.9478 32.689C48.78 32.0719 48.7816 32.071 49.7903 32.1959C51.2735 32.3795 54.4583 33.8756 56.3725 35.2877C58.0414 36.519 59.4248 38.0012 60.1693 39.3556L60.5629 40.0718L59.9002 40.0648C59.5356 40.0608 58.7 39.8854 58.0433 39.6751Z" fill="black"/>
<path d="M112.372 38.6943C112.376 38.1984 113.725 36.2318 114.862 35.0648C116.903 32.969 120.458 30.8267 122.474 30.4778C123.302 30.3346 123.354 30.3591 123.354 30.8867C123.354 31.7681 121.464 34.0981 119.518 35.6166C116.812 37.7278 112.364 39.6435 112.372 38.6943Z" fill="black"/>
<path d="M56.8496 34.4967C53.7331 32.3194 50.8578 28.0801 50.5801 25.2537C50.5063 24.5026 50.5497 23.9829 50.6861 23.9829C51.3187 23.9829 53.3673 25.5662 54.626 27.0284C56.8606 29.624 58.5401 33.1235 58.3574 34.8049L58.2822 35.4978L56.8496 34.4967Z" fill="black"/>
<path d="M114.115 32.7073C114.408 29.8122 116.816 25.5308 119.319 23.4537C120.934 22.1135 121.207 22.1344 121.2 23.5968C121.189 26.0934 119.069 29.9526 116.296 32.5229C115.348 33.4018 114.438 34.1207 114.272 34.1207C114.048 34.121 114.008 33.7659 114.115 32.7073Z" fill="black"/>
<path d="M58.239 28.3964C58.5053 25.2103 60.3865 21.1001 62.492 19.1051C64.0301 17.6478 64.3718 17.6839 64.3718 19.3039C64.3718 22.147 62.2405 26.7899 59.9352 28.9694C59.246 29.6209 58.5495 30.154 58.3873 30.154C58.1655 30.154 58.1287 29.7172 58.239 28.3964Z" fill="black"/>
<path d="M113.42 27.3225C111.129 25.7782 108.802 22.7442 107.701 19.866C107.103 18.301 106.934 16.7097 107.367 16.7097C108.935 16.7097 112.208 20.3703 113.804 23.9097C114.574 25.6175 115.027 27.95 114.588 27.95C114.458 27.95 113.933 27.6677 113.42 27.3225Z" fill="black"/>
<path d="M56.2951 26.9405C54.0547 25.1705 51.4848 20.9115 50.963 18.1037C50.4916 15.5665 51.001 15.2035 52.7573 16.8245C54.2489 18.2011 55.9479 20.796 56.7395 22.9059C57.4664 24.8436 57.8649 27.2109 57.518 27.5312C57.385 27.6541 56.9045 27.4221 56.2951 26.9405Z" fill="black"/>
<path d="M115.636 24.9979C115.315 24.2266 115.483 21.3744 115.95 19.6652C116.563 17.4198 118.106 14.53 119.321 13.351C120.51 12.1981 120.719 12.4036 120.724 14.7305C120.731 17.7546 118.987 22.0431 116.833 24.3028C115.965 25.2131 115.772 25.3252 115.636 24.9979Z" fill="black"/>
<path d="M57.3089 20.7779C55.3264 17.6557 54.5345 11.8613 55.7445 9.33024L56.1567 8.46826L56.822 9.27315C57.6597 10.287 58.537 12.5941 58.8973 14.7313C59.3472 17.3988 58.8825 21.7789 58.1497 21.7789C58.0367 21.7789 57.6585 21.3285 57.3089 20.7779Z" fill="black"/>
<path d="M113.717 19.0841C113.392 18.566 112.946 17.5967 112.725 16.93C112.185 15.3045 111.968 10.4684 112.36 8.80788C112.687 7.42136 113.224 6.48797 113.579 6.69008C113.975 6.91621 114.915 8.82485 115.256 10.0976C115.759 11.9697 115.692 16.7184 115.139 18.4236C114.893 19.1846 114.605 19.8564 114.499 19.9166C114.394 19.977 114.042 19.6023 113.717 19.0841Z" fill="black"/>
<path d="M60.4082 18.1947C61.0515 15.2253 67.3631 9.43652 69.9572 9.43652C70.7574 9.43652 70.745 9.72348 69.875 11.3297C68.1717 14.475 64.0346 17.8976 60.9474 18.7146C60.27 18.8942 60.259 18.8836 60.4082 18.1947Z" fill="black"/>
<path d="M109.28 16.7036C106.405 15.7491 102.886 13.2677 101.222 11.0203C100.655 10.2548 100.191 9.53588 100.191 9.42238C100.191 9.30888 100.648 9.21609 101.206 9.21631C103.109 9.21653 107.196 11.4487 109.48 13.7356C110.468 14.7249 111.892 16.6362 111.892 16.9732C111.892 17.2811 110.627 17.1504 109.28 16.7036Z" fill="black"/>
<path d="M59.9561 14.4335C58.6332 11.5141 59.0998 5.40776 60.8557 2.66117C61.1081 2.26622 61.4567 1.94312 61.6301 1.94312C61.8035 1.94312 62.1385 2.46391 62.3747 3.1002C62.8761 4.45234 62.9499 9.06966 62.4976 10.7998C62.1046 12.3029 61.3306 14.0932 60.8003 14.7262L60.3384 15.2772L59.9561 14.4335Z" fill="black"/>
<path d="M109.422 12.3815C107.585 9.78432 106.924 4.63077 107.977 1.11653C108.353 -0.138851 108.512 -0.246846 109.1 0.353296C110.787 2.07372 111.72 8.04539 110.84 11.495C110.388 13.2675 110.153 13.4147 109.422 12.3815Z" fill="black"/>
<path d="M62.9439 11.5853C62.957 9.70992 65.3402 5.37514 67.5147 3.27079C69.2197 1.62111 71.058 0.736656 71.058 1.56601C71.058 3.25734 69.0471 7.1522 67.0383 9.35111C65.8145 10.6909 63.6925 12.3016 63.1517 12.3016C63.0347 12.3016 62.941 11.9793 62.9439 11.5853Z" fill="black"/>
<path d="M106.758 10.7714C105.924 10.4569 103.839 8.90751 102.878 7.88729C100.917 5.80674 99.2016 2.95942 98.8656 1.22688C98.7154 0.452625 98.7429 0.400391 99.3026 0.400391C100.72 0.400391 104.141 3.55604 105.994 6.57152C106.63 7.60694 107.594 10.0597 107.594 10.642C107.594 11.0158 107.461 11.0365 106.758 10.7714Z" fill="black"/>
</g>
<defs>
<clipPath id="clip0_41_442">
<rect width="177" height="89" fill="white"/>
</clipPath>
</defs>
</svg>
