<svg width="198" height="50" viewBox="0 0 198 50" fill="none" xmlns="http://www.w3.org/2000/svg">
<g clip-path="url(#clip0_41_483)">
<path d="M0.203247 0.718686C0.203247 1.2731 0.291066 1.43737 0.598434 1.43737C0.817982 1.43737 1.38881 1.74538 1.87181 2.13552L2.72805 2.83368V26.7351L1.95963 27.3306C1.54249 27.6591 0.971666 27.9261 0.708208 27.9261C0.291066 27.9261 0.203247 28.0287 0.203247 28.5216V29.117L4.87962 29.1376C7.42638 29.1581 9.66578 29.076 9.81946 28.9733C10.2805 28.7064 10.039 28.0287 9.44623 27.9671C8.56804 27.8439 7.90939 27.3101 7.66789 26.5092C7.55811 26.0986 7.44834 23.4292 7.44834 20.4928V15.1951L7.9533 15.0924C8.21676 15.0308 12.4321 15.0103 17.328 15.0308L26.2197 15.0924L26.2856 20.8008L26.3295 26.5298L25.583 27.2279C25.122 27.6591 24.617 27.9261 24.2657 27.9261C23.5851 27.9261 23.2997 28.3984 23.6949 28.8501C23.9145 29.0965 24.7707 29.1581 28.6567 29.1581C32.894 29.1581 33.355 29.117 33.5307 28.7885C33.8161 28.2957 33.6185 27.9261 33.1135 27.9261C32.4988 27.9261 31.6206 27.3306 31.2474 26.6735C30.7644 25.7906 30.7863 4.06571 31.2693 2.91581C31.5986 2.15606 32.5427 1.43737 33.2013 1.43737C33.6844 1.43737 33.838 1.12936 33.6624 0.513347L33.5307 0H23.6949V0.718686C23.6949 1.37577 23.7388 1.43737 24.3316 1.43737C24.7707 1.43737 25.2098 1.64271 25.6489 2.07392L26.3295 2.71047L26.2856 7.65914L26.2197 12.6283L17.328 12.6899C12.4321 12.7105 8.21676 12.6899 7.9533 12.6283C7.44834 12.5257 7.44834 12.5051 7.44834 8.39836C7.44834 3.65503 7.62398 2.6694 8.6339 1.97125C9.00713 1.70431 9.51209 1.43737 9.7536 1.3963C10.061 1.35524 10.2146 1.1499 10.2586 0.657084L10.3244 0H0.203247L0.203247 0.718686ZM77.3745 4.51745C75.5522 4.68172 73.5104 5.25667 72.2151 5.97536C72.0394 6.07803 71.7321 6.22177 71.5564 6.3039C71.1393 6.46817 69.6024 7.55647 69.0316 8.11088C68.2632 8.82957 66.8581 10.6571 66.5946 11.2936C66.5288 11.4579 66.3751 11.7864 66.2434 12.0123C66.0897 12.2382 65.914 12.7515 65.8262 13.1417C65.7384 13.5318 65.5628 14.23 65.431 14.6817C65.1456 15.7084 65.1456 17.6797 65.4091 18.8296C65.5408 19.3224 65.7164 20.0616 65.8043 20.4723C66.2434 22.2587 67.407 24.0862 69.1194 25.6674C70.8539 27.2895 72.1712 28.0287 74.6301 28.768C75.8596 29.1581 76.5841 29.1992 79.9651 29.1992C84.1365 29.1992 86.1125 28.9322 88.0225 28.0698C88.769 27.7207 89.0544 27.4538 89.252 26.8994C90.0863 24.538 90.218 24.0862 90.218 23.7577C90.218 22.9979 89.3837 23.4292 88.3738 24.6817C86.4418 27.1458 84.6415 27.9055 80.8872 27.9055C77.0232 27.9055 74.6301 26.8788 72.6981 24.3532C70.8758 21.9918 70.3709 20.2875 70.3709 16.5298C70.3709 12.4435 71.0954 10.3491 73.203 8.31622C74.4106 7.14579 75.5961 6.55031 77.616 6.07803C80.5799 5.35934 84.0926 5.97536 86.4638 7.59754C87.2761 8.15195 88.9007 10.1027 88.9007 10.5339C88.9007 10.924 89.3618 11.2936 89.8667 11.2936C90.2619 11.2936 90.2839 11.191 90.1522 8.48049C89.9765 5.17454 89.8228 4.846 88.5934 5.37988C87.9567 5.68789 87.7371 5.68788 86.9028 5.44148C83.8292 4.51745 80.6457 4.20945 77.3745 4.51745ZM48.6356 4.82546C48.46 4.98973 48.2624 5.33881 48.1745 5.60575C48.0209 6.07803 47.5378 7.28953 47.0548 8.35729C46.8792 8.70637 46.7475 9.09651 46.7475 9.19918C46.7475 9.32238 46.6157 9.67146 46.4401 10C46.2645 10.308 45.9571 10.9651 45.7815 11.4374C45.4521 12.2998 45.1009 13.1417 44.3983 14.8871C44.2007 15.3388 43.9153 15.9959 43.7616 16.3655C43.586 16.7146 43.4543 17.0842 43.4543 17.2074C43.4543 17.3101 43.3006 17.6797 43.1249 17.9877C42.9493 18.3162 42.7956 18.7269 42.7956 18.9117C42.7956 19.076 42.7078 19.3018 42.62 19.4251C42.5321 19.5277 42.2248 20.1643 41.9394 20.8419C39.9415 25.7495 39.5902 26.4887 38.7998 27.269C38.3388 27.7002 37.8997 27.9261 37.4825 27.9261C36.758 27.9261 36.4726 28.3984 36.8678 28.8501C37.263 29.3018 44.1788 29.2813 44.5739 28.8296C44.9691 28.3984 44.6398 27.9261 43.9373 27.9261C43.3225 27.9261 42.5541 27.3306 42.2906 26.6735C42.1589 26.3244 42.62 24.8255 43.4543 22.7926C43.7177 22.1766 43.9812 21.4784 44.069 21.2526C44.1348 21.0267 44.3105 20.616 44.4861 20.3285C44.6398 20.0411 44.7715 19.692 44.7715 19.5483C44.7715 19.384 44.9691 18.9938 45.2326 18.6653L45.6717 18.0698H49.2723C53.2022 18.0698 53.2461 18.0903 53.773 19.3429C53.9267 19.7125 54.256 20.5339 54.4975 21.1499C54.761 21.7659 55.0464 22.3614 55.1342 22.4846C55.222 22.5873 55.3099 22.7926 55.3099 22.9569C55.3099 23.1212 55.4416 23.5318 55.6172 23.8809C56.3856 25.5647 56.6491 26.4682 56.4515 26.8378C56.0783 27.4743 55.4416 27.885 54.761 27.9671C54.278 28.0082 54.0804 28.1519 54.0365 28.4805C53.9926 28.768 54.0804 28.9528 54.256 28.9528C56.4296 29.0144 63.9601 28.9322 64.1137 28.8501C64.5089 28.6037 64.2894 28.1314 63.7186 28.0082C62.4452 27.7002 61.8304 27.0431 60.9083 24.9487C60.5131 24.0452 60.096 23.1417 59.613 22.115C59.4593 21.7659 59.0861 20.9446 58.8446 20.3285C58.3616 19.1992 58.164 18.7269 57.6151 17.5565C57.4614 17.2074 57.1102 16.4271 56.8686 15.8111C56.3198 14.5175 56.0344 13.8809 54.9805 11.6016C54.8269 11.2526 54.4756 10.4723 54.2341 9.85626C53.9706 9.24025 53.6413 8.50103 53.5096 8.21355C53.3998 7.92608 53.1583 7.41273 53.0046 7.08419C52.8729 6.73511 52.5216 6.03696 52.2801 5.48255L51.7971 4.51745H50.392C49.426 4.51745 48.8771 4.62012 48.6356 4.82546ZM49.5357 9.40452C49.7772 9.54825 50.2602 10.616 50.7213 12.0534C50.8311 12.423 51.0287 12.7721 51.1384 12.8337C51.2702 12.9158 51.358 13.1212 51.358 13.306C51.358 13.4908 51.5117 13.922 51.6873 14.23C51.8629 14.538 52.0605 15.1129 52.1484 15.5031L52.2801 16.2218H49.2942C47.6476 16.2218 46.3084 16.1602 46.3084 16.0575C46.3084 15.9754 46.506 15.4004 46.7694 14.7844C47.0109 14.1684 47.2744 13.4702 47.3622 13.2444C47.4281 13.0185 47.6037 12.6078 47.7794 12.3203C47.933 12.0329 48.0648 11.7043 48.0648 11.5811C48.0648 11.4374 48.2184 11.0678 48.3941 10.7598C48.5697 10.4312 48.7234 10.0205 48.7234 9.83573C48.7234 9.28131 49.0527 9.11704 49.5357 9.40452ZM148.947 4.76386C148.706 5.44148 148.179 9.05544 148.289 9.24025C148.508 9.56879 149.035 9.21971 149.496 8.43942C150.286 7.12526 150.835 6.98152 154.677 6.98152H158.058V16.6324C158.058 27.0226 158.058 27.1458 156.917 27.6797C156.653 27.8029 156.061 27.9466 155.643 27.9671C154.985 28.0287 154.875 28.1109 154.875 28.5421V29.0554H165.194V28.5421C165.194 28.0903 165.084 28.0287 164.316 27.9671C163.811 27.9261 163.24 27.7207 162.976 27.4949C162.054 26.694 161.988 25.8522 162.054 16.2218L162.12 7.08419L165.457 7.02259C169.299 6.96099 169.782 7.08419 170.682 8.41889C171.78 10.0616 172.197 9.13758 171.648 6.22177C171.407 4.88706 171.012 4.43532 170.507 4.9076C170.331 5.07187 167.389 5.13347 160.122 5.13347C151.384 5.13347 149.957 5.0924 149.716 4.82546C149.386 4.45585 149.079 4.43532 148.947 4.76386ZM196.04 4.82546C195.799 5.0924 194.46 5.13347 185.59 5.13347C179.047 5.13347 175.381 5.05133 175.293 4.92813C175.227 4.80493 174.92 4.72279 174.612 4.72279C174.217 4.72279 174.085 4.846 174.064 5.17454C174.064 5.44148 173.976 6.40657 173.888 7.35113C173.712 9.40452 174.02 9.91786 174.744 8.7885C174.986 8.41889 175.183 8.04928 175.183 7.96715C175.183 7.90554 175.513 7.6386 175.93 7.41273C176.632 7.00205 176.94 6.98152 180.057 7.02259L183.416 7.08419L183.482 16.3244C183.526 22.7721 183.46 25.8111 183.306 26.3655C182.999 27.3511 182.319 27.9055 181.396 27.9261C181.023 27.9261 180.562 27.9877 180.365 28.0493C179.903 28.2136 179.903 28.8706 180.365 29.0349C180.562 29.0965 182.802 29.1581 185.37 29.1581C188.993 29.1581 190.112 29.0965 190.442 28.8706C190.793 28.6242 190.815 28.5421 190.574 28.2546C190.42 28.0698 189.959 27.9261 189.564 27.9261C189.168 27.9261 188.642 27.7413 188.334 27.4949L187.807 27.0637L187.697 17.2279C187.632 11.8275 187.632 7.28953 187.654 7.18686C187.697 7.06365 189.037 6.98152 191.035 6.98152C194.767 6.98152 195.382 7.16632 196.172 8.52156C196.479 9.07598 196.721 9.24025 197.182 9.24025C197.731 9.24025 197.797 9.17864 197.797 8.52156C197.797 8.02875 197.687 7.80287 197.489 7.80287C197.182 7.80287 197.006 7.12526 196.875 5.35934C196.809 4.55852 196.457 4.35318 196.04 4.82546ZM95.4872 5.33881C95.0042 5.62628 95.4872 6.22177 96.3434 6.38604C96.7386 6.46817 97.1777 6.63244 97.3094 6.75565C97.507 6.94045 97.5729 9.69199 97.5729 16.9405V26.8583L97.046 27.3922C96.7386 27.6797 96.2995 27.9261 96.0141 27.9261C95.2896 27.9261 94.9383 28.4189 95.3774 28.8296C95.6848 29.117 96.3654 29.1581 99.7684 29.1581C103.479 29.1581 103.83 29.117 104.028 28.7885C104.291 28.3368 103.962 27.9261 103.347 27.9261C102.03 27.9261 101.547 26.0164 101.678 21.3347C101.744 18.2341 101.613 18.6037 103.325 17.1869C103.764 16.8378 103.808 16.8788 106.157 19.5277C107.475 21.0267 109.143 22.8953 109.868 23.6961C111.339 25.3183 111.953 26.2628 111.953 26.8378C111.953 27.3511 111.295 27.9261 110.702 27.9261C110.087 27.9261 109.846 28.5626 110.329 28.8912C110.812 29.2197 119.879 29.2813 120.538 28.9528C121.35 28.5421 120.911 27.9261 119.813 27.9261C119.111 27.9261 118.079 27.2895 116.674 25.9754C114.851 24.271 107.123 15.1951 107.123 14.7639C107.123 14.5585 107.387 14.2094 107.738 13.963C108.067 13.7166 108.88 13.039 109.538 12.4641C110.219 11.8686 111.887 10.4723 113.271 9.34292C114.654 8.21355 115.839 7.22793 115.861 7.12526C115.905 7.04312 116.059 6.98152 116.234 6.98152C116.388 6.98152 116.63 6.85832 116.783 6.69404C116.915 6.52977 117.354 6.3655 117.727 6.32444C118.32 6.28337 118.43 6.1807 118.43 5.74949V5.23614H114.368C110.351 5.23614 110.307 5.23614 110.241 5.68789C110.175 6.03696 110.307 6.1807 110.724 6.28337C111.514 6.46817 112.041 7.08419 111.887 7.6386C111.712 8.25462 110.943 9.01437 108.77 10.7598C107.804 11.54 106.465 12.6078 105.806 13.1417C103.94 14.6612 102.337 15.8111 102.096 15.8111C101.722 15.8111 101.635 15.154 101.635 12.2382C101.635 7.80287 102.03 6.46817 103.369 6.32444C103.808 6.28337 103.94 6.16016 103.94 5.74949V5.23614L99.8782 5.19507C97.529 5.154 95.6848 5.21561 95.4872 5.33881ZM124.973 5.27721C124.819 5.31828 124.687 5.54415 124.687 5.77002C124.687 6.13963 125.016 6.28337 126.202 6.40657C126.487 6.44764 126.926 6.73511 127.19 7.04312C127.629 7.61807 127.651 7.86448 127.717 16.1602C127.783 25.0924 127.673 26.4066 126.861 27.3922C126.553 27.7618 126.18 27.9261 125.499 27.9671C124.687 28.0287 124.577 28.0903 124.577 28.5421V29.0554L134.567 29.0965C140.055 29.1376 144.688 29.076 144.842 28.9938C144.995 28.8912 145.215 28.2752 145.347 27.5975C145.478 26.9405 145.676 26.1191 145.764 25.7906C146.181 24.5791 145.412 24.4969 144.578 25.6879C143.524 27.1663 142.822 27.3101 136.85 27.3101H131.713L131.757 22.423L131.822 17.5565H135.994C140.517 17.5565 141.351 17.7002 141.768 18.6037C141.922 18.8706 142.163 19.0965 142.361 19.0965C142.646 19.0965 142.69 18.7064 142.69 16.7351C142.69 14.2505 142.514 13.9014 141.856 14.9897C141.658 15.3183 141.241 15.6468 140.934 15.729C140.231 15.8932 132.613 16.0575 132.108 15.8932C131.757 15.7906 131.713 15.4004 131.713 11.3758V6.98152H136.323C140.868 6.98152 140.956 6.98152 141.812 7.49487C142.295 7.78234 142.822 8.27515 142.997 8.6037C143.327 9.19918 143.854 9.52772 144.095 9.30185C144.468 8.93224 143.963 5.58522 143.48 5.29774C143.217 5.13347 125.412 5.11294 124.973 5.27721ZM65.1456 38.193C63.6307 38.768 62.2037 39.9795 61.5231 41.2731C60.9083 42.4025 60.9962 45.6058 61.6548 46.7762C62.3354 47.9466 63.8722 49.1581 65.1895 49.5688C66.5946 50 69.2951 50 70.7441 49.5483C72.4127 49.0554 74.169 47.3306 74.7179 45.6468C75.6839 42.7105 74.2569 39.7536 71.2051 38.3984C69.9757 37.8645 69.5585 37.7823 67.9778 37.8029C66.7264 37.8029 65.8701 37.9261 65.1456 38.193ZM70.3928 39.5688C70.81 39.8768 71.4467 40.5749 71.7979 41.1499C72.3688 42.0739 72.4346 42.4025 72.4346 43.9425C72.4346 45.7495 72.1053 46.7146 71.1832 47.6797C70.0635 48.8296 67.5167 49.2402 66.0458 48.501C63.6307 47.3101 62.533 44.1889 63.6746 41.7864C64.2235 40.5955 65.8482 39.076 66.6824 38.9528C67.9778 38.7269 69.6024 39.0144 70.3928 39.5688ZM79.8993 37.9877C79.7456 38.0698 79.7017 40.1848 79.7236 43.8604L79.7895 49.5893H80.8872L80.997 45.5852C81.0848 42.2177 81.1507 41.5811 81.4361 41.5195C81.6337 41.499 83.5657 43.1622 86.0466 45.4825C88.3958 47.6797 90.5034 49.5483 90.723 49.6099C91.689 49.8973 91.7549 49.5688 91.7549 43.7166C91.7549 38.4805 91.7329 38.193 91.3377 37.9877C91.0962 37.885 90.7449 37.8439 90.5693 37.9055C90.2619 38.0082 90.218 38.5626 90.218 41.7864C90.218 43.8604 90.1302 45.6057 90.0424 45.6674C89.9326 45.729 88.0006 44.0246 85.7392 41.9097C82.2265 38.5832 81.5459 38.0287 80.8872 37.9466C80.4481 37.9055 80.009 37.9261 79.8993 37.9877ZM118.869 38.3984C117.398 39.076 116.366 39.9795 115.664 41.2731C114.961 42.5051 114.961 45.3183 115.664 46.5298C117.003 48.9117 118.935 49.8973 122.316 49.8973C123.37 49.8973 124.292 49.7947 124.358 49.692C124.424 49.5688 124.731 49.4867 124.994 49.4867C125.28 49.4867 125.631 49.3429 125.785 49.1786C125.939 49.0144 126.18 48.8706 126.334 48.8706C126.487 48.8706 126.926 48.5421 127.322 48.1314C129.825 45.4415 129.649 41.6222 126.905 39.4045C125.368 38.1519 124.292 37.8029 122.053 37.8029C120.428 37.8029 120.011 37.885 118.869 38.3984ZM124.248 39.3634C124.621 39.5688 125.302 40.2464 125.741 40.8624C126.531 41.9713 126.553 42.0329 126.553 43.9425C126.553 45.77 126.509 45.9548 125.895 46.8172C124.863 48.2341 123.743 48.8501 122.206 48.8706C119.835 48.8706 118.298 47.6797 117.574 45.2567C117.201 44.0657 117.179 43.7577 117.42 42.9363C118.013 40.8419 119.264 39.3634 120.845 38.9528C121.635 38.7474 123.567 38.9733 124.248 39.3634ZM51.4019 43.7782L51.4678 49.5893L55.244 49.6509C58.8446 49.692 59.0202 49.692 59.152 49.2813C59.2178 49.0554 59.2178 48.7885 59.152 48.6653C59.0861 48.5421 58.0323 48.46 56.715 48.46C55.4416 48.46 54.2121 48.3573 53.9706 48.2546C53.5754 48.0493 53.5535 47.7618 53.5535 43.0185V37.9877H51.358L51.4019 43.7782ZM98.2535 38.2957C98.0559 38.8296 98.0998 49.1376 98.3194 49.4661C98.495 49.7125 99.1975 49.7331 102.381 49.6304C106.662 49.5072 107.475 49.3018 108.967 47.9055C110.614 46.3655 111.141 43.2238 110.109 41.1499C109.538 39.9795 108.089 38.7269 106.926 38.3573C106.487 38.2341 104.401 38.0903 102.271 38.0493C98.8243 37.9671 98.3852 37.9877 98.2535 38.2957ZM105.586 39.5688C106.245 39.8768 106.794 40.3491 107.299 41.0472C107.958 41.9918 108.001 42.1766 107.979 43.7782C107.958 45.7495 107.54 46.694 106.201 47.7002C105.433 48.2752 105.235 48.3368 103.062 48.4189L100.756 48.5216V43.9014C100.756 41.3552 100.822 39.2197 100.932 39.1376C101.283 38.7885 104.576 39.117 105.586 39.5688ZM133.908 43.2033C133.908 46.078 133.864 48.5421 133.798 48.7064C133.579 49.2197 134.215 49.7741 134.852 49.6099L135.445 49.4867V45.5647C135.445 42.4435 135.511 41.6427 135.752 41.5606C135.928 41.499 137.618 42.9363 140.187 45.3799C142.471 47.5565 144.556 49.4045 144.82 49.5072C145.983 49.9179 145.983 49.8973 145.983 43.7166V37.9877H144.446V41.5195C144.446 43.5524 144.337 45.1951 144.227 45.3799C144.051 45.6263 143.217 44.9487 139.99 41.8275L135.972 37.9877H133.908V43.2033Z" fill="black"/>
</g>
<defs>
<clipPath id="clip0_41_483">
<rect width="198" height="50" fill="white"/>
</clipPath>
</defs>
</svg>
