<svg width="271" height="48" viewBox="0 0 271 48" fill="none" xmlns="http://www.w3.org/2000/svg">
<path d="M221.388 22.8788H223.449V32.4095C223.449 33.3033 223.384 33.9589 223.187 34.4968C223.125 34.8554 222.864 35.2127 222.546 35.6288C221.775 36.643 220.553 37.1782 218.944 37.1782C217.786 37.1782 216.883 36.8798 216.37 36.2242C215.792 35.511 215.47 34.3189 215.47 32.7694V22.8788H217.143V22.6406H211.865V22.8788H213.346V32.5313C213.346 35.8067 215.082 37.4739 218.557 37.4739C220.488 37.4739 221.898 36.8798 222.803 35.8067C223.446 34.9731 223.768 33.9589 223.768 32.7681V22.8775H225.185V22.6393H221.388V22.8788ZM204.658 22.5804H203.887L198.352 36.8798H197.386V37.1782H200.54V36.8798H198.674L200.927 31.1625H205.754L208.009 36.8798H205.691V37.1782H211.484V36.8798H210.258L204.658 22.5804ZM203.303 24.9621L205.684 30.9176H201.052L203.303 24.9621ZM194.747 31.2775H194.486C193.585 34.9129 191.784 36.7607 189.018 36.7607H184.321V18.4098H187.216V18.0526H179.818V18.4098H181.748V36.7594H179.818V37.1769H194.747V31.2775ZM251.632 22.8788C252.727 22.8788 253.563 23.1772 254.139 23.7124C254.654 24.1901 255.105 25.0236 255.494 26.1556H255.686V22.6406H243.652V22.8788H245.199V36.8798H243.652V37.1782H255.751V32.6517H255.494C255.363 33.603 255.043 34.4968 254.528 35.2126C253.693 36.2844 252.662 36.8798 251.308 36.8798H247.319V29.4926H248.991C249.957 29.4926 250.6 29.791 250.984 30.4466C251.243 30.8052 251.5 31.5184 251.758 32.5326H252.016V26.2185H251.758C251.435 27.4107 251.116 28.2442 250.662 28.6015C250.34 29.0176 249.632 29.1942 248.669 29.1942H247.316V22.8788H251.632ZM227.565 22.8788H228.788V36.8183H227.565V37.118H233.228V36.8183H231.424V29.9101H231.554L238.052 37.118H241.59V36.8183H240.625L234.385 29.9101C238.441 29.7883 240.497 28.4811 240.497 26.0352C240.497 23.6522 238.179 22.5215 233.674 22.5215L227.562 22.5804L227.565 22.8788ZM232.904 22.8186C234.382 22.8186 235.475 22.9965 236.186 23.3551C237.087 23.8903 237.54 24.7239 237.54 26.0352C237.54 28.4169 236.186 29.6104 233.485 29.6104H231.424V22.8788L232.904 22.8186ZM269.456 22.8788H271V22.6406H267.589V22.8788H269.134V33.7208L261.99 22.6406H258.321V22.8788H259.868V36.8798H258.321V37.1755H262.247V36.8798H260.123V23.7124H260.186L269.069 37.4137H269.456V22.8788ZM17.4034 23.0567C17.4034 21.3882 16.8239 20.1974 15.6012 19.3638C14.2498 18.4714 12.0617 17.9937 8.97314 17.9937L0.60789 18.0526V18.4098H2.98826V36.7594H0.606445V37.1755H9.03673V36.7594H6.14185V28.1198H8.52221C14.4421 28.1211 17.4034 26.4553 17.4034 23.0567ZM12.3825 19.3638C13.2844 20.0797 13.7339 21.2705 13.7339 23.0567C13.7339 24.6062 13.2829 25.7957 12.3825 26.569C11.5457 27.3451 10.3245 27.7626 8.71443 27.7626H6.14185V18.4098H8.00914C10.1308 18.4098 11.5472 18.7082 12.3825 19.3638ZM24.4809 22.2834C22.7437 22.2834 21.1987 22.9979 19.7838 24.4282C18.3038 25.975 17.5321 27.7626 17.5321 29.8485C17.5321 31.8756 18.1752 33.603 19.5265 35.1524C20.8779 36.7005 22.5515 37.4739 24.4824 37.4739C26.3482 37.4739 27.9568 36.6403 29.3732 35.0909C30.7245 33.5428 31.3677 31.8154 31.3677 29.8485C31.3677 27.7626 30.6609 25.9174 29.2446 24.4282C27.8267 22.9979 26.2817 22.2834 24.4809 22.2834ZM20.6842 24.7855C21.456 23.2989 22.6787 22.5229 24.4809 22.5229C26.2182 22.5229 27.4409 23.2989 28.2126 24.7855C28.7922 25.9776 29.1145 27.6475 29.1145 29.8485C29.1145 32.352 28.7286 34.1971 28.0854 35.3304C27.3137 36.5828 26.1546 37.1782 24.4824 37.1782C22.8088 37.1782 21.5861 36.5828 20.8779 35.3304C20.1697 34.1971 19.8488 32.352 19.8488 29.8485C19.8474 27.6448 20.1046 25.975 20.6842 24.7855ZM58.1992 24.4282C56.7843 22.9979 55.2393 22.2834 53.437 22.2834C51.6998 22.2834 50.1548 22.9979 48.7399 24.4282C47.2599 25.975 46.5517 27.7626 46.5517 29.8485C46.5517 31.8756 47.1949 33.6632 48.4812 35.1524C49.8325 36.7005 51.4411 37.4739 53.4356 37.4739C55.3014 37.4739 56.975 36.6403 58.3264 35.0909C59.6777 33.5428 60.3208 31.8154 60.3208 29.8485C60.3223 27.7626 59.6156 25.9174 58.1992 24.4282ZM48.8049 29.8485C48.8049 27.6462 49.0622 25.975 49.7067 24.7855C50.4149 23.2989 51.7012 22.5229 53.4384 22.5229C55.1757 22.5229 56.4634 23.2989 57.1716 24.7855C57.7511 25.9776 58.0734 27.6475 58.0734 29.8485C58.0734 32.352 57.6876 34.1971 57.0444 35.3304C56.2712 36.5828 55.1135 37.1782 53.4399 37.1782C51.7677 37.1782 50.545 36.5828 49.8368 35.3304C49.1258 34.1971 48.8049 32.352 48.8049 29.8485ZM44.6859 32.649H44.4286C43.7855 35.4495 42.3691 36.8771 40.1174 36.8771H36.5143V22.8788H38.4437V22.6406H33.4243V22.8788H34.4533V36.8798H33.4243V37.1782H44.6859V32.649ZM76.8606 5.42298L76.4096 5.54207L75.5728 6.377L72.3556 8.87909L71.7125 9.41564L71.8411 9.5936H72.2285L72.3571 9.41564H72.5508L72.8731 8.99818H73.0653L73.2575 8.70114L73.9657 8.28367L75.2534 7.09283L75.7665 6.85466L76.281 6.25925L76.6669 6.0813L77.0528 5.60496H77.31L77.5023 5.24771L78.2755 4.71116L78.6614 4.2937L78.79 4.23483C78.79 4.23483 78.855 4.23482 78.9186 4.17595V4.05687H79.0473V3.81736L79.5618 3.5792V3.33835C79.6904 3.10018 80.0127 2.80181 80.5272 2.44456L80.7845 2.14618C81.0417 2.08731 81.299 2.20639 81.4927 2.50343L81.9436 3.09885H82.2659L82.3945 2.91956L80.7223 0H80.4651L80.1442 0.179288V0.537884L80.4015 0.715835C80.6587 1.07309 80.7238 1.49055 80.4651 1.90667H80.2729V2.02576L79.9506 2.26392V2.44322L79.8855 2.62252H79.7569L79.6283 2.68139V2.80047L78.79 3.33835V3.57652H78.6614V3.75448L78.0833 4.23081L77.761 4.58807H77.5037L77.1829 5.00553C77.0528 5.18616 76.9242 5.3039 76.8606 5.42298ZM68.3652 12.3339C67.9779 12.572 67.7221 12.8102 67.6585 12.9293V13.4056L67.8507 13.9422L67.6585 14.2392L67.4012 14.1201L67.4648 13.4645L67.3362 13.2852C67.1425 13.3454 67.0789 13.4043 67.1425 13.4645L67.2076 13.7027L67.0789 14.001L67.0139 14.4185C67.0139 14.5965 67.1425 14.7757 67.3998 14.955L67.9794 15.2534L68.0429 15.4916L68.6861 15.2534V15.6709L67.6571 16.4456C67.3348 16.7426 67.0789 17.0999 67.0139 17.5173V18.2921L66.4358 18.7095V18.8286H66.1785V19.0668L65.5354 19.602V20.0194L65.2781 20.7339L65.4068 20.7942L66.4372 20.3178V20.4369C66.4372 20.4971 66.4372 20.556 66.3086 20.6162L65.7291 20.7353V20.9146L66.18 21.2718H66.4372L66.5008 21.0337H66.7581L66.6945 21.2718L66.5659 21.4511H67.0804L67.209 21.6893H67.7235L67.8522 21.7482L68.2381 22.7008L68.3667 23.7124L68.8798 24.6062L69.0084 25.5615L69.2656 25.7395L69.5229 26.8139H69.7166C69.8452 26.4553 69.9088 26.2185 69.8452 26.1583L69.7166 26.0981L69.5879 25.4424L69.2656 25.0865L69.137 24.2503L68.8798 24.0121L68.6225 22.642L68.4939 22.5229V22.1054H68.3002L68.1716 20.9132L68.5575 20.4958V20.4356C68.8798 20.1974 69.2006 20.2576 69.3943 20.6149L69.5865 21.5675C69.6501 21.6264 69.5865 21.6866 69.5865 21.6866L69.5229 21.8646L69.7166 21.9837V22.3422L69.8452 22.5202L70.0374 23.711L70.3597 24.3667V24.665L70.7456 25.025L70.9393 25.3809L70.682 25.4411L70.2961 24.9059H70.0389L69.8466 25.979L69.9102 26.0392L69.9738 26.0994L70.1025 26.1596L70.3597 26.9932L70.617 27.1136L71.0029 28.2469L71.2601 28.4851L71.3888 29.3187L71.5824 29.4391V30.5711L71.7111 30.6313V30.927L72.2256 31.3444L72.6765 32.4764L73.1274 32.8363L73.8992 33.9081L74.2215 34.1462H74.5438L75.0583 34.446L75.5092 34.5062L75.7029 34.7443H76.0888L76.2174 34.2693H76.346L76.5383 34.5075L76.6669 35.9967C76.7305 36.6524 76.7305 37.1902 76.6669 37.5462L76.5383 37.6064V37.9047L76.216 38.8561H76.3446C76.4082 39.394 76.5368 39.8114 76.9227 40.1098C76.8591 40.17 76.9227 40.2302 76.9863 40.2891C76.9863 40.3493 76.9227 40.4697 76.729 40.5875L77.4372 41.1254V41.3635L77.6945 41.6017L78.0818 41.7796L78.274 42.1971L78.725 42.2573L79.0473 41.7796C79.0473 41.6619 78.9186 41.3635 78.5963 41.1267L78.2104 40.8283H77.9532L77.8896 41.0665L77.6323 41.0063C77.9546 40.6477 77.9546 40.3506 77.826 40.2329L77.6323 40.1125L77.761 39.7539C77.8896 39.5157 77.9532 39.398 77.8896 39.2187L77.5673 38.8026V37.4913L77.761 37.4311V37.015L77.8896 36.9547V36.4195L78.1469 36.1212L78.4041 36.1814V36.3593C78.4677 36.3593 78.5328 36.3593 78.5978 36.2991L78.6614 36.1814L78.725 36.2389H78.7886C79.1109 36.9548 79.3031 37.3735 79.3031 37.5488L79.2395 38.1442L79.3031 38.3222L79.5603 38.5617C79.689 38.8026 79.689 39.038 79.6254 39.2762L79.4317 39.4555L79.2395 39.5157L79.3031 38.6219L79.0458 38.5042V37.9088L78.9172 37.8485V37.5488L78.5313 37.1902L78.5949 36.9507L78.5313 36.7126L78.274 36.5319L78.0818 37.0698L77.8246 37.1876V37.2478C77.9532 37.308 77.9532 37.4257 78.0168 37.6064L78.0818 38.0814L78.2104 38.1416L78.5327 38.8547L78.725 40.8805H79.0473L79.1759 40.7628L79.2395 40.5821L79.5603 40.344C79.6254 40.1647 79.754 39.8689 79.819 39.4501C79.8826 38.9752 79.9477 38.6768 79.8826 38.4975L79.5603 37.4833V37.0096L79.2395 36.4744V36.2938L79.3031 36.1158L79.0458 35.1016H78.79V35.5191L78.6614 35.8174L78.4041 35.8776L78.5327 35.0414L78.725 34.9838V34.6253L78.9186 34.5651L79.3045 33.6097L79.1109 32.8979V32.8377L79.0473 32.5982L79.2409 31.8221C79.3696 31.5237 79.4982 31.3484 79.6283 31.228V31.1705L79.306 30.4546L79.2424 30.3944V30.2767C79.4346 30.2165 79.5632 30.2165 79.6297 30.3369V30.5751L80.1428 31.228L80.5287 32.3025H81.3004L81.3655 32.2422C81.6227 32.0643 81.6878 31.8248 81.6227 31.4689H81.4305V31.1705L81.0446 30.5751L80.981 30.3369L80.9174 30.0947L80.5952 29.7963L80.4665 28.9628H80.2743L80.2093 28.845V28.6644L79.6947 29.1421L80.2743 30.1536L80.4665 30.3342V30.7504C80.2093 30.8106 80.1457 30.7504 80.2093 30.6901L79.952 30.0947L79.3725 29.2611L79.0502 29.3829L78.9866 29.6211L79.2438 30.0385L78.9866 29.8579L78.923 29.9783L78.7943 30.0385V30.9296H78.5371C78.5371 30.278 78.5371 29.9181 78.472 29.7977L78.2148 29.6197L77.8289 29.4418V29.2611L77.3144 28.9614V28.7835L77.0571 28.7233L76.9935 28.3633L76.6712 28.065L76.5426 27.4695V26.7564C76.479 26.458 76.2853 26.1021 76.0281 25.6819L75.8344 25.6244V25.504C75.898 25.4438 75.8344 25.3836 75.8344 25.3836L76.2203 25.4438V25.6819L76.4776 25.8626L76.9285 25.7421L77.0571 26.8179L77.5716 27.1738L77.7653 27.8897L78.0876 28.1278L78.2162 28.6055H78.4085L78.5371 28.7835H78.6007L78.923 29.2009L79.4375 28.9614C79.6312 28.8437 79.6947 28.663 79.6947 28.4275L79.5661 27.7719L79.3089 27.6542V28.1278L79.0516 28.0676V27.4735C79.0516 27.416 78.988 27.3558 78.7943 27.3558L78.923 27.0561L78.4085 26.8179L78.7308 26.28V25.9817L78.9244 25.9241V25.1481L79.053 25.0303L79.1166 24.9086V24.8484L79.2453 23.897H79.4375L79.5661 24.0161L79.3739 24.8497V24.9099L79.3103 25.7435L79.6326 25.983L79.5676 26.0432L79.6962 26.1034L79.7598 26.1636C79.8884 26.1636 80.017 26.1034 80.1471 25.983L80.2757 25.8639L80.4044 25.4464L80.3408 25.2083L80.2122 24.9688L79.8899 24.3747L79.7612 24.0161L79.6326 23.7177L79.3753 23.5986L79.2467 23.4193L79.3103 23.2414L79.3739 23.1812L79.3103 23.0019L79.2467 22.8828L79.3103 22.3476L79.1166 22.2887L78.9244 22.646C78.7958 22.646 78.7308 22.646 78.7958 22.5871H78.7322L78.9895 21.7535L78.9201 21.5087H78.7264C78.7264 21.4498 78.6628 21.3896 78.5342 21.3896V20.7942H78.4692L78.4056 20.6751L78.1483 20.7339L78.0847 21.5087L77.8275 21.4498C77.891 21.0323 77.891 20.7942 77.891 20.6751C77.8275 20.4356 77.6338 20.3767 77.3115 20.4356L77.1193 20.6149L76.9906 20.7942H76.6048L76.6684 20.4958C76.7319 20.4356 76.9256 20.3767 77.1193 20.3165L77.7624 20.1974L77.891 20.0181C77.9546 20.0783 77.9546 19.9592 77.891 19.7799C77.8275 19.7197 77.7624 19.7197 77.6338 19.6609L77.3115 19.6006C77.3752 19.459 77.408 19.3071 77.408 19.1537C77.408 19.0003 77.3752 18.8485 77.3115 18.7068L75.9602 18.8259L75.1234 19.2434L74.8661 19.1845L74.7375 19.0654V18.9463L75.5092 18.7671L75.5728 18.648L76.5383 18.2907H77.0528L77.5037 18.1716C77.3115 17.8733 77.1829 17.516 77.1178 17.0397C77.0528 16.5633 77.0528 16.1472 77.1814 15.7886L76.6669 15.9077L76.6033 16.4443H76.281L76.0238 16.3252L75.7651 16.2663V16.1472L76.2796 15.7297H76.5368L76.6655 15.4314L77.3086 15.2534C77.8231 15.0152 77.8882 14.5978 77.6309 13.8231L77.4387 13.6451L77.31 13.4658H76.9242L76.8606 13.6451L76.4096 13.704L76.2174 13.9422H75.9602L76.2174 13.3467H76.5397L76.9906 13.0484L76.7334 12.75L76.0266 12.5707L75.0612 11.9753C74.7109 11.7811 74.3104 11.678 73.9021 11.6769L73.6448 11.8562V12.3325H73.3847L73.3211 11.8562C73.2561 11.7371 73.1274 11.6769 72.8702 11.6769L72.8051 11.8562H72.227L72.0984 11.7384L72.0348 11.5591L71.8411 11.5003H71.6489L71.7775 10.9637L72.0998 10.7256V10.4272H72.0362C71.6504 10.4272 71.5217 10.4272 71.6504 10.4861L71.0708 10.7844L70.8786 10.7256L70.7499 10.6654L72.0391 10.1301V9.95084H71.3324V9.77289L71.396 9.59493L71.0101 9.41697L70.367 9.35676L69.2078 9.89331V10.0713L69.0142 10.1904L68.8855 10.4285V11.3812L69.0142 12.1559L68.6283 12.097L68.3652 12.3339ZM68.4953 12.7513L68.8812 12.3941C68.9448 12.3941 69.0098 12.4529 69.0098 12.572L69.3972 12.5132L69.5894 12.3941L69.718 12.572L70.2325 12.8704L70.6184 13.2879L71.1965 13.229L71.3266 12.7527H71.5839C71.5839 13.2879 71.6475 13.5862 71.8411 13.7655L72.1634 14.0037L72.3571 14.5403H72.4857L73.0002 13.6465L73.3861 13.5274L73.4497 13.3494V13.051L73.707 12.9922C73.8356 13.051 73.8356 13.2303 73.7706 13.5274L73.5769 14.0639L73.0638 14.005C73.0002 14.3034 72.8066 14.6607 72.5493 15.137L72.0348 14.8386C72.0984 14.7798 72.0348 14.7195 71.7125 14.7195L71.6489 15.0179L71.5188 15.1932L71.0679 15.1343L70.5534 15.79H70.1675L69.8452 15.5518L69.7166 15.3725L70.0374 15.0153L70.1661 14.4198L69.9088 14.5978L69.7166 14.7169C69.5879 14.955 69.5229 15.0741 69.5879 15.1343L69.5244 15.3725H69.2671L69.0749 15.0741L68.9462 14.7169L68.4953 14.3596V14.2405H68.3017L68.173 13.6451C68.1094 13.3467 68.1094 13.1688 68.173 12.9895L68.3017 12.8704L68.4953 12.7513ZM70.9407 10.2492C70.9407 10.3094 70.8771 10.3094 70.7471 10.2492L70.6835 10.1301C70.8121 10.1301 70.8757 10.189 70.9407 10.2492ZM72.8702 12.9895L72.8051 12.9306H72.7415L72.8051 12.6911C72.9988 12.6911 72.9988 12.7513 72.8702 12.9895ZM70.1675 11.7973C70.1025 11.7384 70.1025 11.6782 70.1675 11.4989C70.4898 11.4401 70.5534 11.5578 70.3597 11.7973H70.1675ZM69.3957 11.5591L69.5244 11.3812C69.653 11.3812 69.718 11.4401 69.653 11.6782L69.5244 12.0368H69.3957L69.2021 11.7987L69.3957 11.5591ZM74.8646 14.1215L74.9297 13.8231L75.9587 14.0024L76.0223 14.4787L75.4442 14.658V14.4198L74.8646 14.1215ZM73.8992 15.2534L74.2865 15.3123C74.4788 15.3123 74.4788 15.3712 74.3501 15.4314L74.0929 15.6695H73.8992V15.2534ZM77.5037 31.2173L77.7624 31.3377V31.4582L77.6338 32.0536L77.1829 32.5875C76.9256 32.7052 76.9256 32.5272 77.0542 32.0536L77.5037 31.2173ZM79.1123 31.398L78.9837 31.4582L78.6614 31.7579V32.2315L78.2755 32.2918L78.4041 32.5313L78.5327 32.6517L78.6614 33.3635L78.79 33.4251V33.6632L78.5327 34.735L78.2104 35.0334V35.3919L78.1469 35.4535L78.0833 35.5137L77.9546 35.3919L78.0182 35.2742L77.9546 35.0334L78.2119 34.3202C78.3405 33.6659 78.2119 33.0103 77.826 32.2944L78.5342 31.699L78.7264 31.3404L78.9837 31.1023H79.0473V31.1625C79.0473 31.0996 79.1123 31.1598 79.1123 31.398ZM75.252 16.2663L75.5092 16.3252L75.252 16.4443V16.2663ZM75.3156 17.4571L75.5092 17.516L76.281 17.3381L76.346 17.1601C76.9242 17.0999 76.8606 17.338 76.2174 17.8746H75.5092L75.4456 17.6953L75.2534 17.7542L75.1884 17.8733H74.801L74.8646 17.6351L75.1219 17.3969L75.3156 17.4571ZM74.4788 16.4456L74.801 16.5045L75.0583 16.3265L75.1219 16.5647L74.8646 16.6235L74.801 16.8015L74.7375 16.9206H74.4802L74.0943 16.2663L74.4788 16.4456ZM73.2561 16.5045L73.3211 16.2061L73.0638 16.0281L72.8066 15.909V15.6709L73.0638 15.7297L73.2561 15.4916L73.5783 15.5518C73.4497 16.0281 73.5148 16.4456 73.707 16.8617H73.9642V17.0999L73.3211 17.219L73.1274 17.5762L72.7415 17.6351V17.8733L72.8702 17.9321L73.3847 18.2907L74.0929 18.4098L74.2215 18.648L73.8992 18.8273H73.6419L73.3847 19.3036C73.3211 19.4829 73.3847 19.6622 73.4483 19.6622H73.7706L73.9642 19.5431L74.0929 19.3638L74.2215 19.2447C74.4152 19.2447 74.4788 19.3036 74.4788 19.3638C74.5423 19.4227 74.4788 19.4829 74.3501 19.602L73.7706 19.9004V20.4971L73.6419 20.6162L73.5769 21.1527L73.3196 21.2116L73.0624 20.9734V20.6162L72.7401 20.0208L72.3542 18.4125H71.9033L71.5174 16.744H71.7096L71.7732 16.8631L71.8368 17.041L72.1591 17.3394L72.8022 17.1614C73.0595 17.1012 73.1896 16.9821 73.2532 16.8028V16.5045H73.2561ZM72.227 16.0281L72.4843 16.2061L72.4207 16.4456H72.162L72.227 16.0281ZM69.4593 15.7297C69.653 15.9077 69.5879 16.0281 69.3957 16.0281L68.8162 15.909L68.8798 15.6709L69.4593 15.7297ZM69.8466 17.219V17.6364L69.718 17.8746H69.4593L69.2671 17.6364C69.2035 17.6953 69.1385 17.6364 69.2035 17.5776L69.1399 17.3394L69.4608 17.041L69.8466 17.219ZM70.682 17.4571C70.682 17.516 70.682 17.5762 70.6184 17.5762L70.5548 17.3381L70.682 17.4571ZM70.2961 18.7082C70.3597 18.6493 70.3597 18.7082 70.3597 18.7671C70.4248 18.7082 70.4248 18.7082 70.3597 18.8861C70.3597 19.0052 70.2961 19.1243 70.1675 19.1243C69.9102 19.3036 69.9102 19.1256 70.2961 18.7082ZM69.2671 19.8401L69.5244 19.5418C69.8466 19.4227 69.7816 19.5418 69.4593 20.0783C69.2671 20.0783 69.2021 20.0194 69.2671 19.8401ZM70.8757 19.3638V19.1256C71.1329 18.7082 71.2616 18.4111 71.3266 18.173H71.5839L71.3902 18.8286L71.2616 18.9477V19.2461L70.682 20.0208C70.4248 19.7224 70.4248 19.6033 70.6184 19.6635L70.8757 19.3638ZM70.1675 20.3165L70.0389 20.4958C69.8466 20.5547 69.7816 20.5546 69.7816 20.4356L69.9102 20.1974C70.1025 20.1385 70.1675 20.1974 70.1675 20.3165ZM73.0638 22.4011V22.3422L73.1274 22.2834L73.4497 22.5215V22.8788C73.2561 22.8788 73.1925 22.8788 73.3211 22.8199L73.0638 22.4011ZM73.6434 21.688L73.9657 22.1054V22.5229L74.0943 22.5817L74.2229 22.7008V23.1772L74.8025 23.4755C74.7389 23.4755 74.8025 23.5357 75.0598 23.6535C75.1884 23.4153 75.1233 23.3565 74.9311 23.4153L74.8661 23.1772V22.939L75.0598 22.8199C74.9311 22.7008 74.9947 22.7008 75.1884 22.8199L75.317 23.4153L76.7319 25.0852V25.3233L76.5397 25.3809L76.3475 25.1427L76.0902 25.0852C75.9616 25.0852 75.8966 25.0852 75.833 25.025V24.546H75.7679L75.2549 24.0108L74.6117 23.7726C74.3996 23.6817 74.2041 23.5607 74.0322 23.414L73.9686 23.1156L73.9035 22.8186L73.7113 22.6995V22.3422L73.389 21.9837V21.6866L73.6434 21.688ZM73.8992 24.0094V23.711H74.0929L74.5438 24.2462V25.0223C74.5438 25.4384 74.4802 25.6177 74.3516 25.6752H74.0929V25.322L74.2865 25.2618C74.3556 25.1089 74.3857 24.9432 74.3744 24.7778C74.3631 24.6123 74.3108 24.4515 74.2215 24.3078L73.8992 24.0094ZM68.8162 18.7671C68.7526 18.8273 68.7526 18.7671 68.7526 18.5891L68.8812 18.2907H68.9448V18.5289C68.9448 18.6493 68.8812 18.7082 68.8162 18.7671ZM68.173 18.7082L68.3017 18.7671L68.4953 19.8401H68.8176V20.0783L68.3667 20.1372L68.3031 20.0181L68.1745 19.8401L67.9822 18.648C68.0444 18.6493 68.1094 18.7082 68.173 18.7082ZM67.3362 18.6493V18.4714C67.3998 18.4714 67.4648 18.4714 67.4648 18.5302C67.4648 18.5891 67.4012 18.6493 67.3362 18.6493ZM67.6585 17.9937V18.173H67.4012L67.4648 17.9335C67.5949 17.9335 67.6585 17.9335 67.6585 17.9937ZM67.8507 19.4227V19.6622L68.173 20.0796V20.3767L67.7871 20.6149L67.4648 20.9132V21.0323C67.4648 21.0925 67.4648 21.1514 67.4012 21.2116H67.0804C67.5313 20.6764 67.7235 19.9606 67.6585 19.0668L67.8507 19.1256V19.4227ZM75.5092 25.4398L75.1869 25.6793V25.9201L75.0583 25.9776L74.9297 26.276C74.8646 26.4567 74.6074 26.5744 74.2215 26.7537L74.0929 26.8714H73.8356L73.772 26.7537L73.9657 26.5731L74.0943 26.4553H74.3516C74.6724 26.2158 74.9947 25.7395 75.3806 24.9059H75.5092V25.4398ZM73.5148 27.5833L73.2561 27.883C72.8702 27.8228 72.8051 27.7626 72.9988 27.6448L73.3211 27.2849C73.5148 27.3491 73.6434 27.4642 73.5148 27.5833ZM75.5728 27.7626L75.8301 27.4628L76.0238 27.5231L75.9602 28.3566C75.9602 28.7166 75.8951 29.0123 75.8315 29.1327H75.7029L75.252 29.5502H74.9297L75.0583 29.3106L75.252 29.1902L75.5092 28.6564L75.5728 27.7626ZM71.0679 26.2158V26.3938L71.3902 26.5731V27.0494H71.1965L71.0679 26.751L70.7456 26.0954H71.0029L71.0679 26.2158ZM72.8702 28.2429L72.7415 28.5413L72.5493 28.7794C72.3556 28.7794 72.2921 28.659 72.4207 28.4811L72.8066 28.1211C72.9338 28.0609 72.9338 28.1211 72.8702 28.2429ZM72.2921 30.0292C72.2285 30.0867 72.1634 30.1469 72.0984 30.0867L72.0348 29.8472C72.162 29.9101 72.2921 29.9101 72.2921 30.0292ZM72.2921 30.6246C72.2921 30.7423 72.2285 30.7423 72.0984 30.7423L72.0348 30.444H72.2285L72.2921 30.6246ZM72.227 29.4324H72.0333L72.0969 29.0149C72.3556 29.1367 72.4207 29.3106 72.227 29.4324ZM77.0528 30.3837V30.6246L76.7305 30.9216V31.8154L76.4082 32.4697H76.216C76.216 32.0536 76.216 31.8154 76.2796 31.8154L76.4082 31.6977L76.5368 31.6375V30.6848L76.729 30.3289L77.0528 30.3837ZM74.5438 30.444C74.4152 30.9778 74.3516 31.2775 74.2865 31.398C74.0293 31.2173 73.9642 31.1598 74.0293 31.1598L74.2215 30.444H74.5438ZM73.707 31.9934L73.4497 31.8114V31.513L73.772 31.6334L73.9657 31.7539L74.0293 32.0536V32.352H74.0929L74.3501 32.8872L74.736 33.421L75.1219 33.599C75.0583 32.9474 75.2505 32.5875 75.7651 32.5272L75.9587 32.5875C76.0873 32.6477 76.0873 32.6477 76.0223 32.6477L75.8937 32.7654L75.8301 32.8872L75.5078 33.0049C75.4171 33.1049 75.3711 33.2332 75.3792 33.3635L75.5078 34.0191L75.1855 33.9589L74.8632 33.8987L74.7346 33.6592H74.4773V33.421L73.7691 32.8256V32.467L73.707 31.9934ZM76.346 32.8872L76.6033 33.0049L76.4096 33.8987C76.5383 33.9589 76.4096 33.9589 76.2174 34.0191V33.0651C76.281 33.0049 76.346 32.9474 76.346 32.8872Z" fill="black"/>
<path d="M71.5839 13.7642L71.3903 13.823V14.3007L71.5839 14.4185L72.0334 14.3596L71.5839 13.7642ZM87.6062 24.5459H87.349C86.6408 24.0709 86.1263 23.8328 85.6118 23.8916C85.3545 23.8916 85.2244 23.9518 85.1608 24.0107V24.1311L85.0958 24.3091H85.2244V24.6075H84.9672C84.8385 24.4897 84.8385 24.4295 84.9672 24.4897V24.3091L84.6449 24.2489C84.5813 24.1913 84.5162 24.2489 84.4526 24.4897L84.9672 24.9059H85.2244L85.2895 24.7854L85.4831 24.6677L85.6118 24.8456L85.9341 24.9059V25.0878L86.7058 25.2658L87.0281 25.5655C87.3504 25.5655 87.5426 25.5053 87.6062 25.2658V24.5459ZM85.9976 24.0696L86.1263 24.19L86.6408 24.5459L86.8981 24.6663H86.9616L87.0903 24.7854H87.1539L87.2175 25.0263H87.0888L87.0252 24.9661L86.8966 24.9059L86.3821 24.6061H85.8676L85.6753 24.368V24.0696H85.9976ZM80.1428 23.6521L79.9492 23.7725L80.2064 23.9518C80.4001 24.1914 80.4637 24.6061 80.5287 25.1427V25.4411C80.5287 25.7996 80.4651 26.1569 80.4001 26.4553L80.7224 26.3349C80.786 26.3349 80.9161 26.2746 80.9161 26.2171C80.9797 26.1569 81.0447 25.9187 80.9797 25.5013L80.9146 24.6677L80.7209 24.5459L80.5923 24.19L80.1428 23.6521Z" fill="black"/>
<path d="M80.7859 23.6521V23.9518L81.1718 24.6663C81.3655 24.966 81.4291 25.2015 81.4291 25.4397C81.4291 25.7394 81.3655 26.0351 81.1718 26.3335L80.5923 26.8112L80.7209 27.1671L80.9146 27.4668L80.8495 27.6474V27.8856L81.0432 28.0636L80.9146 28.4797L80.5923 28.7178V29.1928L80.8495 29.2531L81.0432 29.8471L81.3655 30.0866V30.385L81.4941 30.4452L81.6878 31.0406H82.0101C82.0737 31.0406 82.0737 31.0406 82.0101 31.0406L82.2673 29.5514L82.461 29.4912C82.461 30.2071 82.461 30.6834 82.3324 30.9202L82.2673 31.2186L81.945 31.4595V31.6976H82.2673V31.517C82.461 31.517 82.5246 31.6374 82.461 31.8154L82.396 32.5312C82.461 32.6516 82.7183 32.8911 83.1692 33.1868V33.3648C83.1056 33.3046 83.0406 33.3046 83.1056 33.425L83.0406 33.4852L83.1056 33.6645H83.2342L83.4915 34.1382C83.6216 34.4968 83.5565 35.2728 83.4279 36.3432L83.2342 36.4034L83.1706 37.237C83.1706 37.5956 83.1706 37.8926 83.2342 38.0706C83.2342 38.1308 83.3629 38.2486 83.4915 38.2486L83.8788 38.369V38.6674L83.2357 38.9069V40.0388C83.2357 40.4563 83.1721 40.8149 83.107 41.1146L82.7847 41.4705C82.7104 41.7083 82.733 41.963 82.8483 42.1863L82.977 42.7202L82.9119 42.9597L82.8483 43.0801L82.9119 43.614H83.1692L83.2328 43.7933H83.6201L83.8774 43.5538L83.49 43.0199V42.7202L83.5551 42.6025V42.4218L83.6201 41.7662L83.8123 41.7087V40.3385L84.0046 40.2195V39.4447L84.1332 39.3872L84.3269 37.898L84.7142 37.5381V37.0644L84.1346 37.1822V36.8838L83.8138 36.4663V35.0962H83.8774L84.006 35.0346L84.071 35.0962L84.1346 35.2166C84.1346 35.7505 84.1346 36.1104 84.1997 36.3486L84.4569 36.469C84.6492 36.1104 84.7778 35.5752 84.8428 34.8593L85.035 33.0718L85.2273 33.0115V32.3559L85.5496 31.9973L85.9354 30.5683V30.5081L85.8704 30.3877L86.1927 29.9702C86.3213 29.4939 86.2577 28.956 86.1291 28.3004C85.9369 27.709 85.8083 27.2888 85.6146 26.9905L84.9064 26.2171L84.7778 25.8585L84.006 25.3233V25.0851L84.5856 25.1427V24.6677L84.2633 24.5459H83.8774C83.8774 24.6061 83.8138 24.6677 83.7487 24.6677V24.8456H83.4872C83.1663 24.4884 82.909 24.2502 82.7154 24.1325L81.4276 23.8929L80.7859 23.6521ZM82.4581 28.8369C82.4581 28.8945 82.4581 29.0162 82.3295 29.1367L82.0722 28.7767L82.1358 27.5832L82.4581 27.6448L82.5867 28.1786L83.2299 28.774L83.1663 29.0122C83.2949 29.0122 83.2949 29.0724 83.1663 29.2504C82.909 29.2504 82.844 29.1902 82.909 29.1902H82.8455L82.5882 28.5988L82.4581 28.8369ZM83.1663 29.9702C83.2299 30.088 83.1663 30.088 82.9741 29.9702L82.909 29.435H83.0377L83.1027 29.3146L83.2313 29.435L83.1663 29.9702ZM82.909 30.1442C82.9741 30.1442 83.0377 30.2044 83.0377 30.2659L83.1027 30.5643H82.7804C82.7804 30.3837 82.7804 30.3261 82.844 30.3261L82.909 30.1442ZM83.8745 33.0049C84.3254 33.0049 84.2604 33.1855 83.7459 33.5387H83.4236C83.4872 33.4812 83.4236 33.421 83.2949 33.421L83.4236 33.1226H83.8094L83.8745 33.0049ZM79.5618 26.5155V26.2733L79.2409 26.0953L79.1773 26.3335L79.1123 26.751L79.306 26.8112L79.3696 27.1671L79.4332 27.4641L79.7555 27.6448L79.8841 28.0033L79.9491 28.4168L80.0777 28.3566H80.1428V27.8829L79.9491 27.2273L79.6919 26.5717L79.5618 26.5155ZM77.2465 28.4783L78.0833 29.1902H78.4041V28.8918L78.0833 28.7138L77.9546 28.6536L77.6323 28.0582L76.9242 27.0467C76.8606 27.0467 76.7955 27.1644 76.7955 27.2848C76.7955 27.4628 76.8591 27.523 76.9242 27.4628V27.8802L77.2465 28.1786V28.4783ZM80.4636 27.0493H80.2714C80.2064 26.9891 80.1428 27.1671 80.2714 27.523L80.4636 28.2388C80.5272 28.2388 80.5923 28.1184 80.5272 27.8214L80.4636 27.0493Z" fill="black"/>
<path d="M80.5923 32.827L80.4637 33.005L80.7209 34.4327L80.8496 34.4929L80.786 34.7926L80.9146 35.091L81.0432 35.3907L81.4291 35.5111L81.9436 34.9157V34.6173L82.1373 34.4969L82.3946 33.7235C82.4421 33.5636 82.4193 33.3928 82.331 33.2485L82.1373 32.8899L82.0737 32.1139H81.9451L81.5592 32.4123L81.6228 32.3547L81.9451 32.8297L81.8165 33.0679L81.3019 32.6518H80.7874C80.7209 32.7053 80.6573 32.7655 80.5923 32.827ZM79.7555 31.6375C79.6191 31.9465 79.5113 32.2657 79.4332 32.5915C79.3696 32.5915 79.3046 32.5915 79.3046 32.6518V32.8297H79.7555C79.6919 32.5313 79.8205 32.2343 80.0128 31.9359L79.7555 31.6375ZM70.2962 27.5231L70.1675 27.1645L70.0389 27.285V27.6449L69.8467 27.7626C69.8467 27.8831 69.9103 28.061 69.9753 28.239L70.1039 28.714L69.7181 29.2492C69.653 29.3696 69.7181 29.6666 69.8467 30.0828C69.9103 30.4413 70.0389 30.6768 70.1039 30.6768C70.169 30.737 70.169 30.7371 70.1039 30.7371L70.0404 30.8588L70.2976 31.097L70.4262 31.8101L70.8772 32.2865V32.4644L70.9408 32.6464L71.2631 32.8244V33.0625H71.198L70.9408 33.0023H70.8772L70.6199 32.5862V33.4198L70.4277 33.5375L70.2991 34.2534L70.1704 35.3251L70.0418 35.5057L69.8496 36.6377L69.3987 37.4111C69.3351 37.4713 69.3987 37.5917 69.4623 37.7697L69.3987 38.903L69.5273 38.9632L69.4623 39.7968L70.4277 39.9774L70.7485 39.0836V37.8299C70.6199 37.8299 70.6199 37.7095 70.7485 37.4713L70.8136 37.2331L70.8772 36.995L71.0694 36.9348V36.7555L71.8412 36.2189L72.0984 35.8617H72.3557L73.2561 35.0254L73.3847 34.4915L73.5769 34.3738L73.7056 34.1918V33.9537L73.4483 34.0139L73.3847 34.3136L73.1275 34.4313L72.8702 34.4915V34.2534L73.1275 34.0741C73.3211 33.9536 73.3211 33.7757 73.2561 33.5375L72.678 33.0625L72.5494 32.5875L71.9062 31.9319V31.6335L71.5203 31.0381L71.1344 31.0997C71.0694 31.0997 70.9408 31.0997 70.8772 31.0381L70.6835 30.7397L70.6199 30.3811L70.1054 30.0828L70.0418 29.7255L70.3641 29.783L70.5578 29.5449C70.4291 29.5449 70.3641 29.5449 70.3641 29.4847V29.3054L70.75 29.4847C70.8786 29.8433 70.9437 30.139 71.0072 30.2607L71.1995 30.4387C71.3295 30.4989 71.3295 30.4989 71.3295 30.3785V29.961L71.1995 29.8406L71.0072 28.7688L70.8786 28.7086L70.2962 27.5231ZM71.7125 31.9934C71.4553 31.9934 71.3267 31.9319 71.5203 31.8115L71.3917 31.6937V31.4556L71.714 31.6335L71.7125 31.9934ZM72.162 34.6146L72.0984 34.137H72.4207L72.4843 34.7324L72.2271 34.9732H72.0984V34.7324C72.0984 34.8528 72.0984 34.7926 72.162 34.6146ZM70.0389 36.9401L70.4262 37.1783V37.4767L69.9117 37.2987L70.0389 36.9401ZM70.1675 38.3076L70.4248 38.4882C70.4884 38.7019 70.4884 38.9275 70.4248 39.1412L70.1675 39.5586L69.8452 39.4984C70.0389 39.2014 70.1675 38.7839 70.1675 38.3076ZM69.4594 40.3347L69.588 40.5153L69.8452 41.6473C69.9088 42.0059 69.9739 42.1825 70.1025 42.2427V42.3002L70.0389 42.4206L70.1675 42.5411L70.2962 43.7908L70.9393 43.6128C71.1966 44.2082 71.4538 44.5066 71.7111 44.5668H72.2256L72.3542 44.9254H72.4829L72.6765 45.1649L72.9338 45.2251L73.3211 45.2827C73.4498 44.809 73.4498 44.4491 73.3847 44.2109L73.2561 44.1507C73.3847 44.0891 73.3211 44.0316 73.1925 44.0316C72.9338 44.0316 72.9338 44.0316 73.0639 44.0891L72.8066 44.2109L72.678 44.4491C72.7416 44.4491 72.678 44.5093 72.3557 44.5695L72.4207 44.3889L72.5494 44.1507L72.8066 44.0891V43.7332L72.743 43.4924H72.4222V43.5526L71.9077 43.7908L71.6504 43.3746L71.3295 43.1365L71.2645 42.6588L70.8786 42.4809V42.2427L70.6849 42.0607L70.5563 40.5153L69.5273 40.2156C69.4594 40.2156 69.4594 40.2731 69.4594 40.3347ZM76.9242 45.5195V45.7577L77.5673 45.9958V46.234L76.7305 46.056L76.7956 46.234L76.6669 46.2942L76.6033 47.188L78.0833 46.2942C78.0346 45.9105 77.9485 45.5316 77.8261 45.1622L78.4042 44.6846C78.4677 44.5668 78.4677 44.3286 78.4042 44.0891V43.4951L78.5328 43.3773L78.4678 43.1378L78.6614 43.0776L78.725 42.719L78.0819 42.244L77.5673 43.6128H77.4387L77.3101 44.148H77.2465L77.3101 44.5066L77.4387 44.6846C77.4387 44.9267 77.3737 45.102 77.2451 45.2224L76.9242 45.5195ZM79.6919 40.5113L79.4332 40.629V41.0492L79.7555 41.1669V41.4626L80.0128 41.5844L80.0778 40.9287L79.6919 40.5113ZM79.241 41.2887V41.4091L79.3046 41.765V41.8854L78.9823 42.6588L79.4332 42.5411L79.5618 42.3604L79.7555 42.1825V42.0032L79.6919 41.7623L79.5633 41.7048L79.4997 41.5844V41.4051C79.4997 41.3449 79.4361 41.2847 79.3075 41.2847H79.241V41.2887ZM83.6173 44.3835V43.966L82.844 43.8456C82.6518 44.3233 82.6518 44.5615 82.7805 44.6217C82.844 44.6832 83.1663 44.6244 83.6173 44.3835ZM119.91 22.5805H119.136L113.539 36.8799H112.573V37.1783H115.727V36.8799H113.925L116.048 31.1625H121.002L123.19 36.8799H120.872V37.1783H126.663V36.8799H125.441L119.91 22.5805ZM118.558 24.9622L120.875 30.9177H116.241L118.558 24.9622ZM93.8484 18.4099H95.3934V36.7595H93.8484V37.1769H100.799V36.7595H98.5469V27.7038H98.7392L106.847 37.1743H111.158V36.7568H109.936L102.277 27.6422C107.297 27.5218 109.806 25.8546 109.806 22.6367C109.806 19.5392 107.038 17.9897 101.375 17.9897L93.8469 18.0486L93.8484 18.4099ZM104.465 19.1257C105.623 19.7814 106.139 20.9133 106.139 22.6407C106.139 24.1313 105.688 25.3221 104.786 26.1557C103.949 26.929 102.728 27.289 101.183 27.289H98.5455V18.4112H100.411C102.277 18.4099 103.694 18.6494 104.465 19.1257ZM157.425 22.6407V22.8789H159.098V36.8799H157.425V37.1756H162.957V36.8799H161.221V29.8486H168.234V36.8799H166.692V37.1756H172.03V36.8799H170.358V22.8789H172.03V22.6407H166.692V22.8789H168.234V29.5502H161.221V22.8789H162.957V22.6407H157.425ZM149.124 22.5805L143.011 22.6394V22.9377H144.362V36.7608H143.011V37.0605H148.74V36.7608H146.874V30.2661H148.802C153.564 30.2661 155.945 28.9548 155.945 26.3912C155.945 25.1388 155.43 24.245 154.53 23.6496C153.369 22.9377 151.632 22.5805 149.124 22.5805ZM146.873 22.9377L148.35 22.8789C150.085 22.8789 151.246 23.117 151.889 23.6522C152.594 24.1299 152.982 25.0839 152.982 26.3938C152.982 28.7769 151.629 29.9704 148.993 29.9704H146.87L146.873 22.9377ZM134.195 22.6407H128.146V22.8789H129.755V36.8799H128.146V37.1783H140.308V32.6518H140.051C139.408 35.4509 137.863 36.8799 135.611 36.8799H131.814V22.8789H134.195V22.6407Z" fill="black"/>
</svg>
