<svg width="42" height="42" viewBox="0 0 42 42" fill="none" xmlns="http://www.w3.org/2000/svg">
<path d="M17.2552 33.2499L20.1952 30.7649C20.6327 30.3974 21.3677 30.3974 21.8227 30.7649L24.7452 33.2499C25.4277 33.5999 26.2677 33.2499 26.5127 32.5149L27.0727 30.8349C27.2127 30.4324 27.0727 29.8374 26.7752 29.5399L23.9052 26.6524C23.6952 26.4424 23.5377 26.0399 23.5377 25.7599V22.5224C23.5377 21.7874 24.0802 21.4374 24.7627 21.7174L30.6252 24.2374C31.5877 24.6574 32.3927 24.1324 32.3927 23.0824V21.4549C32.3927 20.6149 31.7627 19.6349 30.9752 19.3024L24.0802 16.3274C23.7827 16.2049 23.5552 15.8374 23.5552 15.5224V11.8999C23.5552 10.7099 22.6802 9.30992 21.6302 8.76742C21.2452 8.57492 20.8077 8.57492 20.4227 8.76742C19.3552 9.29242 18.4977 10.7099 18.4977 11.8999V15.5224C18.4977 15.8374 18.2527 16.2049 17.9727 16.3274L11.0777 19.3024C10.3077 19.6349 9.66016 20.6149 9.66016 21.4549V23.0824C9.66016 24.1324 10.4477 24.6574 11.4277 24.2374L17.2902 21.7174C17.9552 21.4199 18.5152 21.7874 18.5152 22.5224V25.7599C18.5152 26.0574 18.3402 26.4599 18.1477 26.6524L15.2252 29.5224C14.9277 29.8199 14.7877 30.4149 14.9277 30.8174L15.4877 32.4974C15.7327 33.2499 16.5552 33.5999 17.2552 33.2499Z" stroke="white" stroke-width="1.5" stroke-linecap="round" stroke-linejoin="round"/>
<path d="M15.75 38.5H26.25C35 38.5 38.5 35 38.5 26.25V15.75C38.5 7 35 3.5 26.25 3.5H15.75C7 3.5 3.5 7 3.5 15.75V26.25C3.5 35 7 38.5 15.75 38.5Z" stroke="white" stroke-width="1.5" stroke-linecap="round" stroke-linejoin="round"/>
</svg>
