<svg width="1440" height="481" viewBox="0 0 1440 481" fill="none" xmlns="http://www.w3.org/2000/svg">
<circle cx="16.272" cy="20.0635" r="20.0635" fill="#1B4553" fill-opacity="0.3"/>
<circle cx="63.48" cy="20.0635" r="20.0635" fill="#8BA0A5" fill-opacity="0.3"/>
<circle cx="110.688" cy="20.0635" r="20.0635" fill="#D9D9D9" fill-opacity="0.3"/>
<circle cx="157.897" cy="20.0635" r="20.0635" fill="#1B4553" fill-opacity="0.3"/>
<circle cx="205.105" cy="20.0635" r="20.0635" fill="#8BA0A5" fill-opacity="0.3"/>
<circle cx="252.313" cy="20.0635" r="20.0635" fill="#D9D9D9" fill-opacity="0.3"/>
<circle cx="299.522" cy="20.0635" r="20.0635" fill="#1B4553" fill-opacity="0.3"/>
<circle cx="346.73" cy="20.0635" r="20.0635" fill="#8BA0A5" fill-opacity="0.3"/>
<circle cx="393.938" cy="20.0635" r="20.0635" fill="#D9D9D9" fill-opacity="0.3"/>
<circle cx="16.272" cy="68.9643" r="20.0635" fill="#8BA0A5" fill-opacity="0.3"/>
<circle cx="63.48" cy="68.9643" r="20.0635" fill="#D9D9D9" fill-opacity="0.3"/>
<circle cx="110.688" cy="68.9643" r="20.0635" fill="#1B4553" fill-opacity="0.3"/>
<circle cx="157.897" cy="68.9643" r="20.0635" fill="#8BA0A5" fill-opacity="0.3"/>
<circle cx="205.105" cy="68.9643" r="20.0635" fill="#D9D9D9" fill-opacity="0.3"/>
<circle cx="252.313" cy="68.9643" r="20.0635" fill="#1B4553" fill-opacity="0.3"/>
<circle cx="299.522" cy="68.9643" r="20.0635" fill="#8BA0A5" fill-opacity="0.3"/>
<circle cx="346.73" cy="68.9643" r="20.0635" fill="#D9D9D9" fill-opacity="0.3"/>
<circle cx="393.938" cy="68.9643" r="20.0635" fill="#1B4553" fill-opacity="0.3"/>
<circle cx="16.272" cy="117.865" r="20.0635" fill="#D9D9D9" fill-opacity="0.3"/>
<circle cx="63.48" cy="117.865" r="20.0635" fill="#1B4553" fill-opacity="0.3"/>
<circle cx="110.688" cy="117.865" r="20.0635" fill="#8BA0A5" fill-opacity="0.3"/>
<circle cx="157.897" cy="117.865" r="20.0635" fill="#D9D9D9" fill-opacity="0.3"/>
<circle cx="205.105" cy="117.865" r="20.0635" fill="#1B4553" fill-opacity="0.3"/>
<circle cx="252.313" cy="117.865" r="20.0635" fill="#8BA0A5" fill-opacity="0.3"/>
<circle cx="299.522" cy="117.865" r="20.0635" fill="#D9D9D9" fill-opacity="0.3"/>
<circle cx="346.73" cy="117.865" r="20.0635" fill="#1B4553" fill-opacity="0.3"/>
<circle cx="393.938" cy="117.865" r="20.0635" fill="#8BA0A5" fill-opacity="0.3"/>
<circle cx="16.272" cy="166.766" r="20.0635" fill="#1B4553" fill-opacity="0.3"/>
<circle cx="63.48" cy="166.766" r="20.0635" fill="#8BA0A5" fill-opacity="0.3"/>
<circle cx="110.688" cy="166.766" r="20.0635" fill="#D9D9D9" fill-opacity="0.3"/>
<circle cx="157.897" cy="166.766" r="20.0635" fill="#1B4553" fill-opacity="0.3"/>
<circle cx="205.105" cy="166.766" r="20.0635" fill="#8BA0A5" fill-opacity="0.3"/>
<circle cx="252.313" cy="166.766" r="20.0635" fill="#D9D9D9" fill-opacity="0.3"/>
<circle cx="299.522" cy="166.766" r="20.0635" fill="#1B4553" fill-opacity="0.3"/>
<circle cx="346.73" cy="166.766" r="20.0635" fill="#8BA0A5" fill-opacity="0.3"/>
<circle cx="393.938" cy="166.766" r="20.0635" fill="#D9D9D9" fill-opacity="0.3"/>
<circle cx="16.272" cy="215.666" r="20.0635" fill="#8BA0A5" fill-opacity="0.3"/>
<circle cx="63.48" cy="215.666" r="20.0635" fill="#D9D9D9" fill-opacity="0.3"/>
<circle cx="110.688" cy="215.666" r="20.0635" fill="#1B4553" fill-opacity="0.3"/>
<circle cx="157.897" cy="215.666" r="20.0635" fill="#8BA0A5" fill-opacity="0.3"/>
<circle cx="205.105" cy="215.666" r="20.0635" fill="#D9D9D9" fill-opacity="0.3"/>
<circle cx="252.313" cy="215.666" r="20.0635" fill="#1B4553" fill-opacity="0.3"/>
<circle cx="299.522" cy="215.666" r="20.0635" fill="#8BA0A5" fill-opacity="0.3"/>
<circle cx="346.73" cy="215.666" r="20.0635" fill="#D9D9D9" fill-opacity="0.3"/>
<circle cx="393.938" cy="215.666" r="20.0635" fill="#1B4553" fill-opacity="0.3"/>
<circle cx="16.272" cy="264.567" r="20.0635" fill="#D9D9D9" fill-opacity="0.3"/>
<circle cx="63.48" cy="264.567" r="20.0635" fill="#1B4553" fill-opacity="0.3"/>
<circle cx="110.688" cy="264.567" r="20.0635" fill="#8BA0A5" fill-opacity="0.3"/>
<circle cx="157.897" cy="264.567" r="20.0635" fill="#D9D9D9" fill-opacity="0.3"/>
<circle cx="205.105" cy="264.567" r="20.0635" fill="#1B4553" fill-opacity="0.3"/>
<circle cx="252.313" cy="264.567" r="20.0635" fill="#8BA0A5" fill-opacity="0.3"/>
<circle cx="299.522" cy="264.567" r="20.0635" fill="#D9D9D9" fill-opacity="0.3"/>
<circle cx="346.73" cy="264.567" r="20.0635" fill="#1B4553" fill-opacity="0.3"/>
<circle cx="393.938" cy="264.567" r="20.0635" fill="#8BA0A5" fill-opacity="0.3"/>
<circle cx="16.272" cy="313.468" r="20.0635" fill="#1B4553" fill-opacity="0.3"/>
<circle cx="63.48" cy="313.468" r="20.0635" fill="#8BA0A5" fill-opacity="0.3"/>
<circle cx="110.688" cy="313.468" r="20.0635" fill="#D9D9D9" fill-opacity="0.3"/>
<circle cx="157.897" cy="313.468" r="20.0635" fill="#1B4553" fill-opacity="0.3"/>
<circle cx="205.105" cy="313.468" r="20.0635" fill="#8BA0A5" fill-opacity="0.3"/>
<circle cx="252.313" cy="313.468" r="20.0635" fill="#D9D9D9" fill-opacity="0.3"/>
<circle cx="299.522" cy="313.468" r="20.0635" fill="#1B4553" fill-opacity="0.3"/>
<circle cx="346.73" cy="313.468" r="20.0635" fill="#8BA0A5" fill-opacity="0.3"/>
<circle cx="393.938" cy="313.468" r="20.0635" fill="#D9D9D9" fill-opacity="0.3"/>
<circle cx="16.272" cy="362.369" r="20.0635" fill="#8BA0A5" fill-opacity="0.3"/>
<circle cx="63.48" cy="362.369" r="20.0635" fill="#D9D9D9" fill-opacity="0.3"/>
<circle cx="110.688" cy="362.369" r="20.0635" fill="#1B4553" fill-opacity="0.3"/>
<circle cx="157.897" cy="362.369" r="20.0635" fill="#8BA0A5" fill-opacity="0.3"/>
<circle cx="205.105" cy="362.369" r="20.0635" fill="#D9D9D9" fill-opacity="0.3"/>
<circle cx="252.313" cy="362.369" r="20.0635" fill="#1B4553" fill-opacity="0.3"/>
<circle cx="299.522" cy="362.369" r="20.0635" fill="#8BA0A5" fill-opacity="0.3"/>
<circle cx="346.73" cy="362.369" r="20.0635" fill="#D9D9D9" fill-opacity="0.3"/>
<circle cx="393.938" cy="362.369" r="20.0635" fill="#1B4553" fill-opacity="0.3"/>
<circle cx="16.272" cy="411.269" r="20.0635" fill="#D9D9D9" fill-opacity="0.3"/>
<circle cx="63.48" cy="411.269" r="20.0635" fill="#1B4553" fill-opacity="0.3"/>
<circle cx="110.688" cy="411.269" r="20.0635" fill="#8BA0A5" fill-opacity="0.3"/>
<circle cx="157.897" cy="411.269" r="20.0635" fill="#D9D9D9" fill-opacity="0.3"/>
<circle cx="205.105" cy="411.269" r="20.0635" fill="#1B4553" fill-opacity="0.3"/>
<circle cx="252.313" cy="411.269" r="20.0635" fill="#8BA0A5" fill-opacity="0.3"/>
<circle cx="299.522" cy="411.269" r="20.0635" fill="#D9D9D9" fill-opacity="0.3"/>
<circle cx="346.73" cy="411.269" r="20.0635" fill="#1B4553" fill-opacity="0.3"/>
<circle cx="393.938" cy="411.269" r="20.0635" fill="#8BA0A5" fill-opacity="0.3"/>
<circle cx="16.272" cy="460.17" r="20.0635" fill="#1B4553" fill-opacity="0.3"/>
<circle cx="63.48" cy="460.17" r="20.0635" fill="#8BA0A5" fill-opacity="0.3"/>
<circle cx="110.688" cy="460.17" r="20.0635" fill="#D9D9D9" fill-opacity="0.3"/>
<circle cx="157.897" cy="460.17" r="20.0635" fill="#1B4553" fill-opacity="0.3"/>
<circle cx="205.105" cy="460.17" r="20.0635" fill="#8BA0A5" fill-opacity="0.3"/>
<circle cx="252.313" cy="460.17" r="20.0635" fill="#D9D9D9" fill-opacity="0.3"/>
<circle cx="299.522" cy="460.17" r="20.0635" fill="#1B4553" fill-opacity="0.3"/>
<circle cx="346.73" cy="460.17" r="20.0635" fill="#8BA0A5" fill-opacity="0.3"/>
<circle cx="393.938" cy="460.17" r="20.0635" fill="#D9D9D9" fill-opacity="0.3"/>
<circle cx="434.063" cy="20.0635" r="20.0635" fill="#D9D9D9" fill-opacity="0.3"/>
<circle cx="481.272" cy="20.0635" r="20.0635" fill="#1B4553" fill-opacity="0.3"/>
<circle cx="528.48" cy="20.0635" r="20.0635" fill="#8BA0A5" fill-opacity="0.3"/>
<circle cx="575.688" cy="20.0635" r="20.0635" fill="#D9D9D9" fill-opacity="0.3"/>
<circle cx="622.897" cy="20.0635" r="20.0635" fill="#1B4553" fill-opacity="0.3"/>
<circle cx="670.105" cy="20.0635" r="20.0635" fill="#8BA0A5" fill-opacity="0.3"/>
<circle cx="717.313" cy="20.0635" r="20.0635" fill="#D9D9D9" fill-opacity="0.3"/>
<circle cx="764.522" cy="20.0635" r="20.0635" fill="#1B4553" fill-opacity="0.3"/>
<circle cx="811.73" cy="20.0635" r="20.0635" fill="#8BA0A5" fill-opacity="0.3"/>
<circle cx="858.938" cy="20.0635" r="20.0635" fill="#D9D9D9" fill-opacity="0.3"/>
<circle cx="434.063" cy="68.9643" r="20.0635" fill="#1B4553" fill-opacity="0.3"/>
<circle cx="481.272" cy="68.9643" r="20.0635" fill="#8BA0A5" fill-opacity="0.3"/>
<circle cx="528.48" cy="68.9643" r="20.0635" fill="#D9D9D9" fill-opacity="0.3"/>
<circle cx="575.688" cy="68.9643" r="20.0635" fill="#1B4553" fill-opacity="0.3"/>
<circle cx="622.897" cy="68.9643" r="20.0635" fill="#8BA0A5" fill-opacity="0.3"/>
<circle cx="670.105" cy="68.9643" r="20.0635" fill="#D9D9D9" fill-opacity="0.3"/>
<circle cx="717.313" cy="68.9643" r="20.0635" fill="#1B4553" fill-opacity="0.3"/>
<circle cx="764.522" cy="68.9643" r="20.0635" fill="#8BA0A5" fill-opacity="0.3"/>
<circle cx="811.73" cy="68.9643" r="20.0635" fill="#D9D9D9" fill-opacity="0.3"/>
<circle cx="858.938" cy="68.9643" r="20.0635" fill="#1B4553" fill-opacity="0.3"/>
<circle cx="434.063" cy="117.865" r="20.0635" fill="#8BA0A5" fill-opacity="0.3"/>
<circle cx="481.272" cy="117.865" r="20.0635" fill="#D9D9D9" fill-opacity="0.3"/>
<circle cx="528.48" cy="117.865" r="20.0635" fill="#1B4553" fill-opacity="0.3"/>
<circle cx="575.688" cy="117.865" r="20.0635" fill="#8BA0A5" fill-opacity="0.3"/>
<circle cx="622.897" cy="117.865" r="20.0635" fill="#D9D9D9" fill-opacity="0.3"/>
<circle cx="670.105" cy="117.865" r="20.0635" fill="#1B4553" fill-opacity="0.3"/>
<circle cx="717.313" cy="117.865" r="20.0635" fill="#8BA0A5" fill-opacity="0.3"/>
<circle cx="764.522" cy="117.865" r="20.0635" fill="#D9D9D9" fill-opacity="0.3"/>
<circle cx="811.73" cy="117.865" r="20.0635" fill="#1B4553" fill-opacity="0.3"/>
<circle cx="858.938" cy="117.865" r="20.0635" fill="#8BA0A5" fill-opacity="0.3"/>
<circle cx="434.063" cy="166.766" r="20.0635" fill="#D9D9D9" fill-opacity="0.3"/>
<circle cx="481.272" cy="166.766" r="20.0635" fill="#1B4553" fill-opacity="0.3"/>
<circle cx="528.48" cy="166.766" r="20.0635" fill="#8BA0A5" fill-opacity="0.3"/>
<circle cx="575.688" cy="166.766" r="20.0635" fill="#D9D9D9" fill-opacity="0.3"/>
<circle cx="622.897" cy="166.766" r="20.0635" fill="#1B4553" fill-opacity="0.3"/>
<circle cx="670.105" cy="166.766" r="20.0635" fill="#8BA0A5" fill-opacity="0.3"/>
<circle cx="717.313" cy="166.766" r="20.0635" fill="#D9D9D9" fill-opacity="0.3"/>
<circle cx="764.522" cy="166.766" r="20.0635" fill="#1B4553" fill-opacity="0.3"/>
<circle cx="811.73" cy="166.766" r="20.0635" fill="#8BA0A5" fill-opacity="0.3"/>
<circle cx="858.938" cy="166.766" r="20.0635" fill="#D9D9D9" fill-opacity="0.3"/>
<circle cx="434.063" cy="215.666" r="20.0635" fill="#1B4553" fill-opacity="0.3"/>
<circle cx="481.272" cy="215.666" r="20.0635" fill="#8BA0A5" fill-opacity="0.3"/>
<circle cx="528.48" cy="215.666" r="20.0635" fill="#D9D9D9" fill-opacity="0.3"/>
<circle cx="575.688" cy="215.666" r="20.0635" fill="#1B4553" fill-opacity="0.3"/>
<circle cx="622.897" cy="215.666" r="20.0635" fill="#8BA0A5" fill-opacity="0.3"/>
<circle cx="670.105" cy="215.666" r="20.0635" fill="#D9D9D9" fill-opacity="0.3"/>
<circle cx="717.313" cy="215.666" r="20.0635" fill="#1B4553" fill-opacity="0.3"/>
<circle cx="764.522" cy="215.666" r="20.0635" fill="#8BA0A5" fill-opacity="0.3"/>
<circle cx="811.73" cy="215.666" r="20.0635" fill="#D9D9D9" fill-opacity="0.3"/>
<circle cx="858.938" cy="215.666" r="20.0635" fill="#1B4553" fill-opacity="0.3"/>
<circle cx="434.063" cy="264.567" r="20.0635" fill="#8BA0A5" fill-opacity="0.3"/>
<circle cx="481.272" cy="264.567" r="20.0635" fill="#D9D9D9" fill-opacity="0.3"/>
<circle cx="528.48" cy="264.567" r="20.0635" fill="#1B4553" fill-opacity="0.3"/>
<circle cx="575.688" cy="264.567" r="20.0635" fill="#8BA0A5" fill-opacity="0.3"/>
<circle cx="622.897" cy="264.567" r="20.0635" fill="#D9D9D9" fill-opacity="0.3"/>
<circle cx="670.105" cy="264.567" r="20.0635" fill="#1B4553" fill-opacity="0.3"/>
<circle cx="717.313" cy="264.567" r="20.0635" fill="#8BA0A5" fill-opacity="0.3"/>
<circle cx="764.522" cy="264.567" r="20.0635" fill="#D9D9D9" fill-opacity="0.3"/>
<circle cx="811.73" cy="264.567" r="20.0635" fill="#1B4553" fill-opacity="0.3"/>
<circle cx="858.938" cy="264.567" r="20.0635" fill="#8BA0A5" fill-opacity="0.3"/>
<circle cx="434.063" cy="313.468" r="20.0635" fill="#D9D9D9" fill-opacity="0.3"/>
<circle cx="481.272" cy="313.468" r="20.0635" fill="#1B4553" fill-opacity="0.3"/>
<circle cx="528.48" cy="313.468" r="20.0635" fill="#8BA0A5" fill-opacity="0.3"/>
<circle cx="575.688" cy="313.468" r="20.0635" fill="#D9D9D9" fill-opacity="0.3"/>
<circle cx="622.897" cy="313.468" r="20.0635" fill="#1B4553" fill-opacity="0.3"/>
<circle cx="670.105" cy="313.468" r="20.0635" fill="#8BA0A5" fill-opacity="0.3"/>
<circle cx="717.313" cy="313.468" r="20.0635" fill="#D9D9D9" fill-opacity="0.3"/>
<circle cx="764.522" cy="313.468" r="20.0635" fill="#1B4553" fill-opacity="0.3"/>
<circle cx="811.73" cy="313.468" r="20.0635" fill="#8BA0A5" fill-opacity="0.3"/>
<circle cx="858.938" cy="313.468" r="20.0635" fill="#D9D9D9" fill-opacity="0.3"/>
<circle cx="434.063" cy="362.369" r="20.0635" fill="#1B4553" fill-opacity="0.3"/>
<circle cx="481.272" cy="362.369" r="20.0635" fill="#8BA0A5" fill-opacity="0.3"/>
<circle cx="528.48" cy="362.369" r="20.0635" fill="#D9D9D9" fill-opacity="0.3"/>
<circle cx="575.688" cy="362.369" r="20.0635" fill="#1B4553" fill-opacity="0.3"/>
<circle cx="622.897" cy="362.369" r="20.0635" fill="#8BA0A5" fill-opacity="0.3"/>
<circle cx="670.105" cy="362.369" r="20.0635" fill="#D9D9D9" fill-opacity="0.3"/>
<circle cx="717.313" cy="362.369" r="20.0635" fill="#1B4553" fill-opacity="0.3"/>
<circle cx="764.522" cy="362.369" r="20.0635" fill="#8BA0A5" fill-opacity="0.3"/>
<circle cx="811.73" cy="362.369" r="20.0635" fill="#D9D9D9" fill-opacity="0.3"/>
<circle cx="858.938" cy="362.369" r="20.0635" fill="#1B4553" fill-opacity="0.3"/>
<circle cx="434.063" cy="411.269" r="20.0635" fill="#8BA0A5" fill-opacity="0.3"/>
<circle cx="481.272" cy="411.269" r="20.0635" fill="#D9D9D9" fill-opacity="0.3"/>
<circle cx="528.48" cy="411.269" r="20.0635" fill="#1B4553" fill-opacity="0.3"/>
<circle cx="575.688" cy="411.269" r="20.0635" fill="#8BA0A5" fill-opacity="0.3"/>
<circle cx="622.897" cy="411.269" r="20.0635" fill="#D9D9D9" fill-opacity="0.3"/>
<circle cx="670.105" cy="411.269" r="20.0635" fill="#1B4553" fill-opacity="0.3"/>
<circle cx="717.313" cy="411.269" r="20.0635" fill="#8BA0A5" fill-opacity="0.3"/>
<circle cx="764.522" cy="411.269" r="20.0635" fill="#D9D9D9" fill-opacity="0.3"/>
<circle cx="811.73" cy="411.269" r="20.0635" fill="#1B4553" fill-opacity="0.3"/>
<circle cx="858.938" cy="411.269" r="20.0635" fill="#8BA0A5" fill-opacity="0.3"/>
<circle cx="434.063" cy="460.17" r="20.0635" fill="#D9D9D9" fill-opacity="0.3"/>
<circle cx="481.272" cy="460.17" r="20.0635" fill="#1B4553" fill-opacity="0.3"/>
<circle cx="528.48" cy="460.17" r="20.0635" fill="#8BA0A5" fill-opacity="0.3"/>
<circle cx="575.688" cy="460.17" r="20.0635" fill="#D9D9D9" fill-opacity="0.3"/>
<circle cx="622.897" cy="460.17" r="20.0635" fill="#1B4553" fill-opacity="0.3"/>
<circle cx="670.105" cy="460.17" r="20.0635" fill="#8BA0A5" fill-opacity="0.3"/>
<circle cx="717.313" cy="460.17" r="20.0635" fill="#D9D9D9" fill-opacity="0.3"/>
<circle cx="764.522" cy="460.17" r="20.0635" fill="#1B4553" fill-opacity="0.3"/>
<circle cx="811.73" cy="460.17" r="20.0635" fill="#8BA0A5" fill-opacity="0.3"/>
<circle cx="858.938" cy="460.17" r="20.0635" fill="#D9D9D9" fill-opacity="0.3"/>
<circle cx="899.063" cy="20.0635" r="20.0635" fill="#D9D9D9" fill-opacity="0.3"/>
<circle cx="946.272" cy="20.0635" r="20.0635" fill="#1B4553" fill-opacity="0.3"/>
<circle cx="993.48" cy="20.0635" r="20.0635" fill="#8BA0A5" fill-opacity="0.3"/>
<circle cx="1040.69" cy="20.0635" r="20.0635" fill="#D9D9D9" fill-opacity="0.3"/>
<circle cx="1087.9" cy="20.0635" r="20.0635" fill="#1B4553" fill-opacity="0.3"/>
<circle cx="1135.1" cy="20.0635" r="20.0635" fill="#8BA0A5" fill-opacity="0.3"/>
<circle cx="1182.31" cy="20.0635" r="20.0635" fill="#D9D9D9" fill-opacity="0.3"/>
<circle cx="1229.52" cy="20.0635" r="20.0635" fill="#1B4553" fill-opacity="0.3"/>
<circle cx="1276.73" cy="20.0635" r="20.0635" fill="#8BA0A5" fill-opacity="0.3"/>
<circle cx="1323.94" cy="20.0635" r="20.0635" fill="#D9D9D9" fill-opacity="0.3"/>
<circle cx="899.063" cy="68.9643" r="20.0635" fill="#1B4553" fill-opacity="0.3"/>
<circle cx="946.272" cy="68.9643" r="20.0635" fill="#8BA0A5" fill-opacity="0.3"/>
<circle cx="993.48" cy="68.9643" r="20.0635" fill="#D9D9D9" fill-opacity="0.3"/>
<circle cx="1040.69" cy="68.9643" r="20.0635" fill="#1B4553" fill-opacity="0.3"/>
<circle cx="1087.9" cy="68.9643" r="20.0635" fill="#8BA0A5" fill-opacity="0.3"/>
<circle cx="1135.1" cy="68.9643" r="20.0635" fill="#D9D9D9" fill-opacity="0.3"/>
<circle cx="1182.31" cy="68.9643" r="20.0635" fill="#1B4553" fill-opacity="0.3"/>
<circle cx="1229.52" cy="68.9643" r="20.0635" fill="#8BA0A5" fill-opacity="0.3"/>
<circle cx="1276.73" cy="68.9643" r="20.0635" fill="#D9D9D9" fill-opacity="0.3"/>
<circle cx="1323.94" cy="68.9643" r="20.0635" fill="#1B4553" fill-opacity="0.3"/>
<circle cx="899.063" cy="117.865" r="20.0635" fill="#8BA0A5" fill-opacity="0.3"/>
<circle cx="946.272" cy="117.865" r="20.0635" fill="#D9D9D9" fill-opacity="0.3"/>
<circle cx="993.48" cy="117.865" r="20.0635" fill="#1B4553" fill-opacity="0.3"/>
<circle cx="1040.69" cy="117.865" r="20.0635" fill="#8BA0A5" fill-opacity="0.3"/>
<circle cx="1087.9" cy="117.865" r="20.0635" fill="#D9D9D9" fill-opacity="0.3"/>
<circle cx="1135.1" cy="117.865" r="20.0635" fill="#1B4553" fill-opacity="0.3"/>
<circle cx="1182.31" cy="117.865" r="20.0635" fill="#8BA0A5" fill-opacity="0.3"/>
<circle cx="1229.52" cy="117.865" r="20.0635" fill="#D9D9D9" fill-opacity="0.3"/>
<circle cx="1276.73" cy="117.865" r="20.0635" fill="#1B4553" fill-opacity="0.3"/>
<circle cx="1323.94" cy="117.865" r="20.0635" fill="#8BA0A5" fill-opacity="0.3"/>
<circle cx="899.063" cy="166.766" r="20.0635" fill="#D9D9D9" fill-opacity="0.3"/>
<circle cx="946.272" cy="166.766" r="20.0635" fill="#1B4553" fill-opacity="0.3"/>
<circle cx="993.48" cy="166.766" r="20.0635" fill="#8BA0A5" fill-opacity="0.3"/>
<circle cx="1040.69" cy="166.766" r="20.0635" fill="#D9D9D9" fill-opacity="0.3"/>
<circle cx="1087.9" cy="166.766" r="20.0635" fill="#1B4553" fill-opacity="0.3"/>
<circle cx="1135.1" cy="166.766" r="20.0635" fill="#8BA0A5" fill-opacity="0.3"/>
<circle cx="1182.31" cy="166.766" r="20.0635" fill="#D9D9D9" fill-opacity="0.3"/>
<circle cx="1229.52" cy="166.766" r="20.0635" fill="#1B4553" fill-opacity="0.3"/>
<circle cx="1276.73" cy="166.766" r="20.0635" fill="#8BA0A5" fill-opacity="0.3"/>
<circle cx="1323.94" cy="166.766" r="20.0635" fill="#D9D9D9" fill-opacity="0.3"/>
<circle cx="899.063" cy="215.666" r="20.0635" fill="#1B4553" fill-opacity="0.3"/>
<circle cx="946.272" cy="215.666" r="20.0635" fill="#8BA0A5" fill-opacity="0.3"/>
<circle cx="993.48" cy="215.666" r="20.0635" fill="#D9D9D9" fill-opacity="0.3"/>
<circle cx="1040.69" cy="215.666" r="20.0635" fill="#1B4553" fill-opacity="0.3"/>
<circle cx="1087.9" cy="215.666" r="20.0635" fill="#8BA0A5" fill-opacity="0.3"/>
<circle cx="1135.1" cy="215.666" r="20.0635" fill="#D9D9D9" fill-opacity="0.3"/>
<circle cx="1182.31" cy="215.666" r="20.0635" fill="#1B4553" fill-opacity="0.3"/>
<circle cx="1229.52" cy="215.666" r="20.0635" fill="#8BA0A5" fill-opacity="0.3"/>
<circle cx="1276.73" cy="215.666" r="20.0635" fill="#D9D9D9" fill-opacity="0.3"/>
<circle cx="1323.94" cy="215.666" r="20.0635" fill="#1B4553" fill-opacity="0.3"/>
<circle cx="899.063" cy="264.567" r="20.0635" fill="#8BA0A5" fill-opacity="0.3"/>
<circle cx="946.272" cy="264.567" r="20.0635" fill="#D9D9D9" fill-opacity="0.3"/>
<circle cx="993.48" cy="264.567" r="20.0635" fill="#1B4553" fill-opacity="0.3"/>
<circle cx="1040.69" cy="264.567" r="20.0635" fill="#8BA0A5" fill-opacity="0.3"/>
<circle cx="1087.9" cy="264.567" r="20.0635" fill="#D9D9D9" fill-opacity="0.3"/>
<circle cx="1135.1" cy="264.567" r="20.0635" fill="#1B4553" fill-opacity="0.3"/>
<circle cx="1182.31" cy="264.567" r="20.0635" fill="#8BA0A5" fill-opacity="0.3"/>
<circle cx="1229.52" cy="264.567" r="20.0635" fill="#D9D9D9" fill-opacity="0.3"/>
<circle cx="1276.73" cy="264.567" r="20.0635" fill="#1B4553" fill-opacity="0.3"/>
<circle cx="1323.94" cy="264.567" r="20.0635" fill="#8BA0A5" fill-opacity="0.3"/>
<circle cx="899.063" cy="313.468" r="20.0635" fill="#D9D9D9" fill-opacity="0.3"/>
<circle cx="946.272" cy="313.468" r="20.0635" fill="#1B4553" fill-opacity="0.3"/>
<circle cx="993.48" cy="313.468" r="20.0635" fill="#8BA0A5" fill-opacity="0.3"/>
<circle cx="1040.69" cy="313.468" r="20.0635" fill="#D9D9D9" fill-opacity="0.3"/>
<circle cx="1087.9" cy="313.468" r="20.0635" fill="#1B4553" fill-opacity="0.3"/>
<circle cx="1135.1" cy="313.468" r="20.0635" fill="#8BA0A5" fill-opacity="0.3"/>
<circle cx="1182.31" cy="313.468" r="20.0635" fill="#D9D9D9" fill-opacity="0.3"/>
<circle cx="1229.52" cy="313.468" r="20.0635" fill="#1B4553" fill-opacity="0.3"/>
<circle cx="1276.73" cy="313.468" r="20.0635" fill="#8BA0A5" fill-opacity="0.3"/>
<circle cx="1323.94" cy="313.468" r="20.0635" fill="#D9D9D9" fill-opacity="0.3"/>
<circle cx="899.063" cy="362.369" r="20.0635" fill="#1B4553" fill-opacity="0.3"/>
<circle cx="946.272" cy="362.369" r="20.0635" fill="#8BA0A5" fill-opacity="0.3"/>
<circle cx="993.48" cy="362.369" r="20.0635" fill="#D9D9D9" fill-opacity="0.3"/>
<circle cx="1040.69" cy="362.369" r="20.0635" fill="#1B4553" fill-opacity="0.3"/>
<circle cx="1087.9" cy="362.369" r="20.0635" fill="#8BA0A5" fill-opacity="0.3"/>
<circle cx="1135.1" cy="362.369" r="20.0635" fill="#D9D9D9" fill-opacity="0.3"/>
<circle cx="1182.31" cy="362.369" r="20.0635" fill="#1B4553" fill-opacity="0.3"/>
<circle cx="1229.52" cy="362.369" r="20.0635" fill="#8BA0A5" fill-opacity="0.3"/>
<circle cx="1276.73" cy="362.369" r="20.0635" fill="#D9D9D9" fill-opacity="0.3"/>
<circle cx="1323.94" cy="362.369" r="20.0635" fill="#1B4553" fill-opacity="0.3"/>
<circle cx="899.063" cy="411.269" r="20.0635" fill="#8BA0A5" fill-opacity="0.3"/>
<circle cx="946.272" cy="411.269" r="20.0635" fill="#D9D9D9" fill-opacity="0.3"/>
<circle cx="993.48" cy="411.269" r="20.0635" fill="#1B4553" fill-opacity="0.3"/>
<circle cx="1040.69" cy="411.269" r="20.0635" fill="#8BA0A5" fill-opacity="0.3"/>
<circle cx="1087.9" cy="411.269" r="20.0635" fill="#D9D9D9" fill-opacity="0.3"/>
<circle cx="1135.1" cy="411.269" r="20.0635" fill="#1B4553" fill-opacity="0.3"/>
<circle cx="1182.31" cy="411.269" r="20.0635" fill="#8BA0A5" fill-opacity="0.3"/>
<circle cx="1229.52" cy="411.269" r="20.0635" fill="#D9D9D9" fill-opacity="0.3"/>
<circle cx="1276.73" cy="411.269" r="20.0635" fill="#1B4553" fill-opacity="0.3"/>
<circle cx="1323.94" cy="411.269" r="20.0635" fill="#8BA0A5" fill-opacity="0.3"/>
<circle cx="899.063" cy="460.17" r="20.0635" fill="#D9D9D9" fill-opacity="0.3"/>
<circle cx="946.272" cy="460.17" r="20.0635" fill="#1B4553" fill-opacity="0.3"/>
<circle cx="993.48" cy="460.17" r="20.0635" fill="#8BA0A5" fill-opacity="0.3"/>
<circle cx="1040.69" cy="460.17" r="20.0635" fill="#D9D9D9" fill-opacity="0.3"/>
<circle cx="1087.9" cy="460.17" r="20.0635" fill="#1B4553" fill-opacity="0.3"/>
<circle cx="1135.1" cy="460.17" r="20.0635" fill="#8BA0A5" fill-opacity="0.3"/>
<circle cx="1182.31" cy="460.17" r="20.0635" fill="#D9D9D9" fill-opacity="0.3"/>
<circle cx="1229.52" cy="460.17" r="20.0635" fill="#1B4553" fill-opacity="0.3"/>
<circle cx="1276.73" cy="460.17" r="20.0635" fill="#8BA0A5" fill-opacity="0.3"/>
<circle cx="1323.94" cy="460.17" r="20.0635" fill="#D9D9D9" fill-opacity="0.3"/>
<circle cx="1364.06" cy="20.0635" r="20.0635" fill="#D9D9D9" fill-opacity="0.3"/>
<circle cx="1411.27" cy="20.0635" r="20.0635" fill="#1B4553" fill-opacity="0.3"/>
<circle cx="1458.48" cy="20.0635" r="20.0635" fill="#8BA0A5" fill-opacity="0.3"/>
<circle cx="1364.06" cy="68.9643" r="20.0635" fill="#1B4553" fill-opacity="0.3"/>
<circle cx="1411.27" cy="68.9643" r="20.0635" fill="#8BA0A5" fill-opacity="0.3"/>
<circle cx="1458.48" cy="68.9643" r="20.0635" fill="#D9D9D9" fill-opacity="0.3"/>
<circle cx="1364.06" cy="117.865" r="20.0635" fill="#8BA0A5" fill-opacity="0.3"/>
<circle cx="1411.27" cy="117.865" r="20.0635" fill="#D9D9D9" fill-opacity="0.3"/>
<circle cx="1458.48" cy="117.865" r="20.0635" fill="#1B4553" fill-opacity="0.3"/>
<circle cx="1364.06" cy="166.766" r="20.0635" fill="#D9D9D9" fill-opacity="0.3"/>
<circle cx="1411.27" cy="166.766" r="20.0635" fill="#1B4553" fill-opacity="0.3"/>
<circle cx="1458.48" cy="166.766" r="20.0635" fill="#8BA0A5" fill-opacity="0.3"/>
<circle cx="1364.06" cy="215.666" r="20.0635" fill="#1B4553" fill-opacity="0.3"/>
<circle cx="1411.27" cy="215.666" r="20.0635" fill="#8BA0A5" fill-opacity="0.3"/>
<circle cx="1458.48" cy="215.666" r="20.0635" fill="#D9D9D9" fill-opacity="0.3"/>
<circle cx="1364.06" cy="264.567" r="20.0635" fill="#8BA0A5" fill-opacity="0.3"/>
<circle cx="1411.27" cy="264.567" r="20.0635" fill="#D9D9D9" fill-opacity="0.3"/>
<circle cx="1458.48" cy="264.567" r="20.0635" fill="#1B4553" fill-opacity="0.3"/>
<circle cx="1364.06" cy="313.468" r="20.0635" fill="#D9D9D9" fill-opacity="0.3"/>
<circle cx="1411.27" cy="313.468" r="20.0635" fill="#1B4553" fill-opacity="0.3"/>
<circle cx="1458.48" cy="313.468" r="20.0635" fill="#8BA0A5" fill-opacity="0.3"/>
<circle cx="1364.06" cy="362.369" r="20.0635" fill="#1B4553" fill-opacity="0.3"/>
<circle cx="1411.27" cy="362.369" r="20.0635" fill="#8BA0A5" fill-opacity="0.3"/>
<circle cx="1458.48" cy="362.369" r="20.0635" fill="#D9D9D9" fill-opacity="0.3"/>
<circle cx="1364.06" cy="411.269" r="20.0635" fill="#8BA0A5" fill-opacity="0.3"/>
<circle cx="1411.27" cy="411.269" r="20.0635" fill="#D9D9D9" fill-opacity="0.3"/>
<circle cx="1458.48" cy="411.269" r="20.0635" fill="#1B4553" fill-opacity="0.3"/>
<circle cx="1364.06" cy="460.17" r="20.0635" fill="#D9D9D9" fill-opacity="0.3"/>
<circle cx="1411.27" cy="460.17" r="20.0635" fill="#1B4553" fill-opacity="0.3"/>
<circle cx="1458.48" cy="460.17" r="20.0635" fill="#8BA0A5" fill-opacity="0.3"/>
</svg>
