<svg width="42" height="42" viewBox="0 0 42 42" fill="none" xmlns="http://www.w3.org/2000/svg">
<path d="M5.54785 13.02L21.0003 21.9625L36.3478 13.0725" stroke="black" stroke-width="3" stroke-linecap="round" stroke-linejoin="round"/>
<path d="M21.0005 37.8176V21.9451" stroke="black" stroke-width="3" stroke-linecap="round" stroke-linejoin="round"/>
<path d="M37.8176 22.4526V16.0475C37.8176 13.6325 36.0851 10.6925 33.9676 9.52004L24.6226 4.34C22.6276 3.22 19.3726 3.22 17.3776 4.34L8.03259 9.52004C5.91509 10.6925 4.18262 13.6325 4.18262 16.0475V25.9526C4.18262 28.3676 5.91509 31.3075 8.03259 32.48L17.3776 37.6601C18.3751 38.2201 19.6876 38.5 21.0001 38.5C22.3126 38.5 23.6251 38.2201 24.6226 37.6601" stroke="black" stroke-width="3" stroke-linecap="round" stroke-linejoin="round"/>
<path d="M33.6 37.45C36.6928 37.45 39.2 34.9428 39.2 31.85C39.2 28.7572 36.6928 26.25 33.6 26.25C30.5072 26.25 28 28.7572 28 31.85C28 34.9428 30.5072 37.45 33.6 37.45Z" stroke="black" stroke-width="3" stroke-linecap="round" stroke-linejoin="round"/>
<path d="M40.25 38.5L38.5 36.75" stroke="black" stroke-width="3" stroke-linecap="round" stroke-linejoin="round"/>
</svg>
