<svg width="42" height="42" viewBox="0 0 42 42" fill="none" xmlns="http://www.w3.org/2000/svg">
<path d="M17.5 38.5H24.5C33.25 38.5 36.75 35 36.75 26.25V15.75C36.75 7 33.25 3.5 24.5 3.5H17.5C8.75 3.5 5.25 7 5.25 15.75V26.25C5.25 35 8.75 38.5 17.5 38.5Z" stroke="black" stroke-width="3" stroke-linecap="round" stroke-linejoin="round"/>
<path d="M28.875 13.2649V15.0149C28.875 16.4499 27.7025 17.6399 26.25 17.6399H15.75C14.315 17.6399 13.125 16.4674 13.125 15.0149V13.2649C13.125 11.8299 14.2975 10.6399 15.75 10.6399H26.25C27.7025 10.6399 28.875 11.8124 28.875 13.2649Z" stroke="black" stroke-width="3" stroke-linecap="round" stroke-linejoin="round"/>
<path d="M14.2382 24.5H14.2584" stroke="black" stroke-width="3" stroke-linecap="round" stroke-linejoin="round"/>
<path d="M20.9916 24.5H21.0118" stroke="black" stroke-width="3" stroke-linecap="round" stroke-linejoin="round"/>
<path d="M27.745 24.5H27.7653" stroke="black" stroke-width="3" stroke-linecap="round" stroke-linejoin="round"/>
<path d="M14.2382 30.625H14.2584" stroke="black" stroke-width="3" stroke-linecap="round" stroke-linejoin="round"/>
<path d="M20.9916 30.625H21.0118" stroke="black" stroke-width="3" stroke-linecap="round" stroke-linejoin="round"/>
<path d="M27.745 30.625H27.7653" stroke="black" stroke-width="3" stroke-linecap="round" stroke-linejoin="round"/>
</svg>
