<svg width="42" height="42" viewBox="0 0 42 42" fill="none" xmlns="http://www.w3.org/2000/svg">
<path d="M17.6925 19.5122H13.055C11.9525 19.5122 11.0601 20.4046 11.0601 21.5071V30.4671H17.6925V19.5122V19.5122Z" stroke="#292D32" stroke-width="3" stroke-miterlimit="10" stroke-linecap="round" stroke-linejoin="round"/>
<path d="M22.3323 11.5498H19.6722C18.5697 11.5498 17.6772 12.4423 17.6772 13.5448V30.4499H24.3098V13.5448C24.3098 12.4423 23.4348 11.5498 22.3323 11.5498Z" stroke="#292D32" stroke-width="3" stroke-miterlimit="10" stroke-linecap="round" stroke-linejoin="round"/>
<path d="M28.9593 22.4873H24.3218V30.4499H30.9543V24.4823C30.9368 23.3798 30.0443 22.4873 28.9593 22.4873Z" stroke="#292D32" stroke-width="3" stroke-miterlimit="10" stroke-linecap="round" stroke-linejoin="round"/>
<path d="M15.75 38.5H26.25C35 38.5 38.5 35 38.5 26.25V15.75C38.5 7 35 3.5 26.25 3.5H15.75C7 3.5 3.5 7 3.5 15.75V26.25C3.5 35 7 38.5 15.75 38.5Z" stroke="#292D32" stroke-width="3" stroke-linecap="round" stroke-linejoin="round"/>
</svg>
