<svg width="42" height="42" viewBox="0 0 42 42" fill="none" xmlns="http://www.w3.org/2000/svg">
<path d="M34.9473 17.5H6.94727V31.5C6.94727 36.75 8.69727 38.5 13.9473 38.5H27.9473C33.1973 38.5 34.9473 36.75 34.9473 31.5V17.5Z" stroke="white" stroke-width="1.5" stroke-miterlimit="10" stroke-linecap="round" stroke-linejoin="round"/>
<path d="M37.625 12.25V14C37.625 15.925 36.6975 17.5 34.125 17.5H7.875C5.1975 17.5 4.375 15.925 4.375 14V12.25C4.375 10.325 5.1975 8.75 7.875 8.75H34.125C36.6975 8.75 37.625 10.325 37.625 12.25Z" stroke="white" stroke-width="1.5" stroke-miterlimit="10" stroke-linecap="round" stroke-linejoin="round"/>
<path d="M20.3699 8.75002H10.7099C10.1149 8.10252 10.1324 7.10502 10.7624 6.47502L13.2474 3.99002C13.8949 3.34252 14.9624 3.34252 15.6099 3.99002L20.3699 8.75002Z" stroke="white" stroke-width="1.5" stroke-miterlimit="10" stroke-linecap="round" stroke-linejoin="round"/>
<path d="M31.2723 8.75002H21.6123L26.3723 3.99002C27.0198 3.34252 28.0873 3.34252 28.7348 3.99002L31.2198 6.47502C31.8498 7.10502 31.8673 8.10252 31.2723 8.75002Z" stroke="white" stroke-width="1.5" stroke-miterlimit="10" stroke-linecap="round" stroke-linejoin="round"/>
<path d="M15.645 17.5V26.495C15.645 27.895 17.185 28.7175 18.3575 27.965L20.0025 26.88C20.5975 26.495 21.35 26.495 21.9275 26.88L23.485 27.93C24.64 28.7 26.1975 27.8775 26.1975 26.4775V17.5H15.645Z" stroke="white" stroke-width="1.5" stroke-miterlimit="10" stroke-linecap="round" stroke-linejoin="round"/>
</svg>
