<svg width="42" height="42" viewBox="0 0 42 42" fill="none" xmlns="http://www.w3.org/2000/svg">
<path d="M36.1544 13.3622H38.1818C39.1945 13.3622 40.1656 13.7645 40.8817 14.4806C41.5977 15.1967 42 16.1679 42 17.1806V24.8173C42 25.83 41.5977 26.8013 40.8817 27.5173C40.1656 28.2334 39.1945 28.6357 38.1818 28.6357H36.1544C35.6889 32.3267 33.8926 35.721 31.1024 38.1816C28.3123 40.6422 24.7201 41.9999 21 42V38.1816C24.0379 38.1816 26.9514 36.9748 29.0996 34.8265C31.2477 32.6783 32.4545 29.7646 32.4545 26.7265V15.2714C32.4545 12.2333 31.2477 9.31969 29.0996 7.17144C26.9514 5.02319 24.0379 3.81631 21 3.81631C17.9621 3.81631 15.0486 5.02319 12.9004 7.17144C10.7523 9.31969 9.54545 12.2333 9.54545 15.2714V28.6357H3.81818C2.80554 28.6357 1.83437 28.2334 1.11832 27.5173C0.402272 26.8013 0 25.83 0 24.8173V17.1806C0 16.1679 0.402272 15.1967 1.11832 14.4806C1.83437 13.7645 2.80554 13.3622 3.81818 13.3622H5.84564C6.31151 9.67158 8.10806 6.27777 10.8982 3.8176C13.6883 1.35744 17.2802 0 21 0C24.7198 0 28.3117 1.35744 31.1018 3.8176C33.8919 6.27777 35.6885 9.67158 36.1544 13.3622ZM3.81818 17.1806V24.8173H5.72727V17.1806H3.81818ZM36.2727 17.1806V24.8173H38.1818V17.1806H36.2727ZM12.9055 28.2252L14.9291 24.9873C16.7486 26.1271 18.853 26.73 21 26.7265C23.147 26.73 25.2514 26.1271 27.0709 24.9873L29.0945 28.2252C26.6686 29.7452 23.8628 30.5493 21 30.5449C18.1372 30.5493 15.3314 29.7452 12.9055 28.2252Z" fill="black"/>
</svg>
