<svg xmlns="http://www.w3.org/2000/svg" width="42" height="42" fill="none"><path stroke="#000" stroke-linecap="round" stroke-linejoin="round" stroke-width="3" d="M21 24.5h1.75a3.51 3.51 0 0 0 3.5-3.5V3.5H10.5a6.993 6.993 0 0 0-6.107 3.587"/><path stroke="#000" stroke-linecap="round" stroke-linejoin="round" stroke-width="3" d="M3.5 29.75A5.243 5.243 0 0 0 8.75 35h1.75a3.51 3.51 0 0 1 3.5-3.5 3.51 3.51 0 0 1 3.5 3.5h7a3.51 3.51 0 0 1 3.5-3.5 3.51 3.51 0 0 1 3.5 3.5h1.75a5.243 5.243 0 0 0 5.25-5.25V24.5h-5.25c-.962 0-1.75-.788-1.75-1.75V17.5c0-.962.788-1.75 1.75-1.75h2.258l-2.993-5.232A3.529 3.529 0 0 0 29.47 8.75h-3.22V21a3.51 3.51 0 0 1-3.5 3.5H21"/><path stroke="#000" stroke-linecap="round" stroke-linejoin="round" stroke-width="3" d="M14 38.5a3.5 3.5 0 1 0 0-7 3.5 3.5 0 0 0 0 7ZM28 38.5a3.5 3.5 0 1 0 0-7 3.5 3.5 0 0 0 0 7ZM38.5 21v3.5h-5.25c-.962 0-1.75-.788-1.75-1.75V17.5c0-.962.788-1.75 1.75-1.75h2.258L38.5 21ZM3.5 14H14M3.5 19.25h7M3.5 24.5H7"/></svg>