<svg width="40" height="36" viewBox="0 0 40 36" fill="none" xmlns="http://www.w3.org/2000/svg">
<path d="M4.7619 0C2.14332 0 0 1.92899 0 4.28571V31.7143C0 34.071 2.14332 36 4.7619 36H35.2381C37.8567 36 40 34.071 40 31.7143V4.28571C40 1.92899 37.8567 0 35.2381 0H4.7619ZM4.7619 1.71429H35.2381C36.8271 1.71429 38.0952 2.85559 38.0952 4.28571V31.7143C38.0952 33.1444 36.8271 34.2857 35.2381 34.2857H4.7619C3.17287 34.2857 1.90476 33.1444 1.90476 31.7143V4.28571C1.90476 2.85559 3.17287 1.71429 4.7619 1.71429ZM18.4728 10.279C17.4657 10.2769 16.5677 10.3276 15.7645 10.6825L15.7626 10.6842C15.3711 10.8578 15.0951 11.0783 14.8754 11.3404C14.7655 11.4714 14.6529 11.5891 14.5926 11.8878C14.5625 12.0372 14.5455 12.2793 14.7191 12.5407C14.8927 12.8022 15.2417 12.9509 15.465 12.9777C15.6202 12.9963 15.9703 13.1304 16.0026 13.1702L16.0045 13.1735C16.0045 13.1735 16.1403 13.4924 16.1793 13.7762C16.2184 14.06 16.2165 14.2902 16.2165 14.2902C16.2161 14.3131 16.2167 14.336 16.2184 14.3588C16.2184 14.3588 16.2736 15.1024 16.237 15.8705C16.2224 16.1767 16.1784 16.449 16.1328 16.6925C15.7937 16.3555 15.2939 15.7453 14.5722 14.62C13.7715 13.371 13.1343 12.2511 13.1343 12.2511C13.1008 12.1536 12.9825 11.85 12.5205 11.5446C12.0154 11.2096 11.5272 11.1596 11.5272 11.1596C11.4659 11.1485 11.4036 11.1429 11.3411 11.1429L7.58743 11.1445C7.58743 11.1445 7.36236 11.1328 7.09263 11.1663C6.82291 11.1998 6.41675 11.227 6.02493 11.6451L6.02307 11.6468C5.67289 12.0233 5.69407 12.4396 5.73661 12.6747C5.77914 12.9098 5.87426 13.0882 5.87426 13.0882C5.87609 13.0915 5.87795 13.0949 5.87984 13.0982C5.87984 13.0982 8.95021 18.9081 12.42 22.3292C14.9397 24.8133 17.5259 24.8555 19.6596 24.8555H21.2519C21.6584 24.8555 22.0261 24.8412 22.433 24.6278C22.84 24.4144 23.1138 23.8949 23.1138 23.5346C23.1138 23.157 23.1765 22.8602 23.2533 22.7076C23.3074 22.6003 23.3502 22.5616 23.417 22.5301C23.4312 22.5382 23.422 22.5335 23.4617 22.5586C23.6202 22.6589 23.882 22.8877 24.1667 23.173C24.736 23.7436 25.3822 24.5263 26.25 25.0631C26.8717 25.4479 27.459 25.6188 27.9055 25.6808C28.1852 25.7196 28.4025 25.7122 28.5565 25.7009L32.1131 25.7143C32.1342 25.7144 32.1553 25.7138 32.1763 25.7126C32.1763 25.7126 32.7892 25.719 33.4263 25.3761C33.7449 25.2046 34.1207 24.8795 34.2429 24.4051C34.3652 23.9307 34.2115 23.4392 33.9118 22.9905V22.9888C33.9639 23.0665 33.8647 22.9069 33.763 22.7578C33.6613 22.6087 33.5137 22.4078 33.3017 22.1585C32.8778 21.6599 32.1987 20.9622 31.1012 20.0424H31.0993C30.5419 19.5756 30.1654 19.2451 30.0112 19.0614C29.8569 18.8776 29.9075 18.9742 29.9182 18.9275C29.9395 18.834 30.6086 17.9654 31.9699 16.3292C32.7974 15.3333 33.3781 14.5856 33.7612 13.9637C34.1442 13.3418 34.4204 12.8032 34.2281 12.144L34.2262 12.1406C34.1408 11.8512 33.9076 11.5845 33.6682 11.4392C33.4287 11.2939 33.2016 11.237 32.9985 11.2015C32.5922 11.1303 32.2377 11.1429 31.9085 11.1429C31.2182 11.1429 28.1557 11.1646 27.9036 11.1646C27.6058 11.1646 27.1133 11.2865 26.8955 11.404C26.3477 11.7007 26.1905 12.0904 26.1905 12.0904C26.1806 12.1069 26.1713 12.1236 26.1626 12.1406C26.1626 12.1406 25.5308 13.4014 24.7173 14.6468C23.8931 15.91 23.2842 16.5124 22.9167 16.7913C22.9066 16.7417 22.9083 16.782 22.9018 16.7126C22.8688 16.3599 22.9055 15.8724 22.9055 15.3968C22.9055 14.1158 23.0262 13.2192 22.9613 12.4269C22.9289 12.0307 22.8474 11.6222 22.5577 11.2467C22.268 10.8711 21.7859 10.6271 21.3095 10.5234C21.0237 10.4614 20.6978 10.3 19.5182 10.2891H19.5164C19.1556 10.2858 18.8086 10.2797 18.4728 10.279ZM19.4978 12.0033C20.5415 12.013 20.2815 12.0647 20.8612 12.1908C21.041 12.2299 20.9975 12.2297 20.9933 12.2243C20.9891 12.2189 21.0419 12.3073 21.0621 12.5541C21.1025 13.0478 21.0007 14.0292 21.0007 15.3968C21.0007 15.7697 20.9507 16.3018 21.0026 16.8566C21.0544 17.4113 21.2073 18.1233 21.9438 18.5525C22.293 18.7561 22.6983 18.769 23.045 18.6914C23.3917 18.6138 23.7062 18.4523 24.0365 18.2143C24.697 17.7383 25.4337 16.935 26.3597 15.5156C27.2253 14.1907 27.8549 12.9291 27.8757 12.8873C27.8798 12.8843 27.884 12.8823 27.8888 12.8789C27.9007 12.879 27.8883 12.8789 27.9036 12.8789C28.2592 12.8789 31.2654 12.8571 31.9085 12.8571C32.0586 12.8571 32.1133 12.8653 32.2321 12.8689C32.1998 12.9659 32.2358 12.904 32.0945 13.1334C31.7982 13.6144 31.2523 14.3292 30.4446 15.3013C29.1173 16.8966 28.2947 17.5217 28.0525 18.5809C27.9313 19.1105 28.1583 19.6976 28.4914 20.0943C28.8246 20.491 29.245 20.8309 29.8028 21.298C30.8357 22.1636 31.4417 22.7925 31.7894 23.2015C31.9633 23.4059 32.0729 23.5536 32.141 23.6535C32.2091 23.7533 32.1923 23.7428 32.2805 23.8744C32.3386 23.9621 32.3172 23.9086 32.327 23.9347C32.2128 23.9637 32.0745 23.9986 32.0666 24L28.564 23.9866C28.5009 23.9866 28.438 23.9922 28.3761 24.0033C28.3761 24.0033 28.3849 24.0126 28.1975 23.9866C28.0102 23.9606 27.7122 23.8876 27.3289 23.6501C26.8662 23.364 26.2186 22.6639 25.5841 22.0279C25.2668 21.7099 24.9504 21.4045 24.5573 21.1557C24.1642 20.9069 23.5759 20.6729 22.9408 20.8527C22.2816 21.039 21.7684 21.502 21.5179 21.9994C21.3313 22.3697 21.3162 22.7564 21.2872 23.1412C21.2556 23.1433 21.292 23.1412 21.2519 23.1412H19.6596C17.4961 23.1412 15.9599 23.2758 13.8263 21.1724C10.9563 18.3427 8.32678 13.6346 7.89807 12.8588L11.2016 12.8571C11.2597 12.8772 11.384 12.9192 11.3914 12.9241L11.3951 12.9275C11.2743 12.848 11.4007 12.9593 11.4007 12.9593C11.4123 12.9849 11.4254 13.0101 11.4397 13.0346C11.4397 13.0346 12.0943 14.1856 12.9222 15.4771C13.7344 16.7433 14.3261 17.5342 14.8977 18.0569C15.1835 18.3183 15.4719 18.5279 15.8575 18.6462C16.2431 18.7646 16.741 18.7211 17.0759 18.5558C17.7601 18.2187 17.852 17.7215 17.9632 17.2868C18.0745 16.8515 18.1188 16.3878 18.1399 15.9442C18.1809 15.0831 18.1229 14.3379 18.1194 14.2919C18.1196 14.2757 18.124 13.9649 18.0692 13.567C18.0131 13.1594 17.9505 12.6612 17.5409 12.159L17.5391 12.1574C17.5362 12.1539 17.5326 12.1541 17.5298 12.1507C18.0714 12.0808 18.5349 11.9947 19.4978 12.0033ZM27.8999 12.8438L27.8869 12.8705C27.8849 12.8716 27.8855 12.8693 27.8832 12.8705C27.8872 12.8636 27.8999 12.8438 27.8999 12.8438Z" fill="white"/>
</svg>
